<svg xmlns="http://www.w3.org/2000/svg" width="222.18" height="154.584" viewBox="0 0 222.18 154.584">
  <g id="Group_434" data-name="Group 434" transform="translate(-267 -70)">
    <g id="Layer_2" data-name="Layer 2" transform="translate(267 202.212)">
      <g id="圖層_1" data-name="圖層 1">
        <path id="Path_332" data-name="Path 332" d="M13.406,3.709c-1.115,1.167-2.213,2.457-3.31,3.833s-2.178,2.892-3.258,4.513L5.356,14.2q-2.735,4.007-2.875,4.338a.8.8,0,0,0-.087.174.836.836,0,0,1-.314.488.906.906,0,0,1-.261.122H1.471a3.763,3.763,0,0,0-.662.139,2.143,2.143,0,0,1-.488,0,.314.314,0,0,1-.261-.1.627.627,0,0,1,0-.331,1.742,1.742,0,0,1,.174-.8A1.429,1.429,0,0,1,.7,17.63a12,12,0,0,0,1.742-2.265l1.011-1.342Q8.405,7.351,11.3,3.97C13.214,1.723,14.434.59,14.957.59a.61.61,0,0,1,.453.174,1.185,1.185,0,0,1,.244.54,4.186,4.186,0,0,0,.192.993c.07.3.122.47.122.488A29.724,29.724,0,0,1,15.079,5.9c-.592,1.9-1.08,3.729-1.5,5.523,1.568-2.213,2.84-3.885,3.816-5.035a13.939,13.939,0,0,1,2.492-2.457,4.9,4.9,0,0,1,.819-.749,1.324,1.324,0,0,1,.645-.139.784.784,0,0,1,.714.418,2.561,2.561,0,0,1,.244,1.22,16.849,16.849,0,0,1-.976,3.589L20.881,9.79c-.261.819-.436,1.464-.558,1.9a4.739,4.739,0,0,0-.157.958.749.749,0,0,0,.1.418.348.348,0,0,0,.314.157.836.836,0,0,0,.627-.418c.227-.279.4-.418.54-.418a.383.383,0,0,1,.3.1.366.366,0,0,1,.122.3,1.254,1.254,0,0,1-.192.54,4.182,4.182,0,0,1-.505.714,3.694,3.694,0,0,1-1.115.889,2.631,2.631,0,0,1-1.063.4H18.18a.8.8,0,0,1-.784-.383,2.474,2.474,0,0,1-.244-1.237A29.881,29.881,0,0,1,19.138,7.8c.4-1.045.732-1.864.958-2.457a45.9,45.9,0,0,0-3.973,4.913c-.906,1.237-1.62,2.178-2.213,2.875a5.558,5.558,0,0,1-1.1,1.115,1.742,1.742,0,0,1-.958.366,1.289,1.289,0,0,1-.749-.366.958.958,0,0,1-.366-.749l.784-3.676a28.034,28.034,0,0,1,.767-2.945C12.587,5.87,12.97,4.789,13.406,3.709Z" transform="translate(-0.037 0.438)" fill="#e1e1e1"/>
        <path id="Path_333" data-name="Path 333" d="M19.767,8.934a23.608,23.608,0,0,1-1.6,2.265,5.227,5.227,0,0,1-1.22,1.15,1.133,1.133,0,0,1-.3.157l-.3.122-.3.192a2.108,2.108,0,0,1-.871.418,1.1,1.1,0,0,1-.836-.505A1.376,1.376,0,0,1,14,11.9a9.914,9.914,0,0,1,.174-.993c.122-.54.261-1.115.436-1.742A26.135,26.135,0,0,1,15.5,6.6a4.443,4.443,0,0,1,.714-1.342,1.2,1.2,0,0,1,.366-.279l.227-.1.209-.174a1.742,1.742,0,0,1,.976-.47c.209,0,.4.174.61.505a1.986,1.986,0,0,1,.3.732,8.537,8.537,0,0,1-.61,1.551l-.174.3c-.157.314-.348.732-.592,1.254a7.127,7.127,0,0,0-.645,1.742.4.4,0,0,0,0,.227.331.331,0,0,0,.209,0c.314,0,.976-.836,1.969-2.492q.8-1.359,1.307-2.143a1.742,1.742,0,0,1,.714-.558,2.056,2.056,0,0,1,.714-.3.61.61,0,0,1,.523.366,2.213,2.213,0,0,1,.192.976,10.454,10.454,0,0,1-.348,2.161,10.646,10.646,0,0,0-.348,2.021,2.718,2.718,0,0,0,.1.714,1.917,1.917,0,0,1,.087.47c0,.261-.227.575-.7.976a2.126,2.126,0,0,1-1.133.592.836.836,0,0,1-.61-.4,1.1,1.1,0,0,1-.331-.645s.087-.714.279-1.917C19.645,9.771,19.715,9.3,19.767,8.934Z" transform="translate(10.328 3.14)" fill="#e1e1e1"/>
        <path id="Path_334" data-name="Path 334" d="M24.545,6.414a.645.645,0,0,0-.139.261.558.558,0,0,0,0,.244,4.635,4.635,0,0,0,.749,1.429,4.042,4.042,0,0,1,.732,2,2.753,2.753,0,0,1-1.272,2.161,4.5,4.5,0,0,1-2.875.976,3.676,3.676,0,0,1-1.6-.279.836.836,0,0,1-.627-.8,1.847,1.847,0,0,1,.627-1.185c.418-.436.767-.662,1.028-.662s.575.244.871.749.54.767.767.767a.279.279,0,0,0,.261-.122.575.575,0,0,0,.087-.331,4.007,4.007,0,0,0-.767-2.317A3.328,3.328,0,0,1,21.6,7.773a1.481,1.481,0,0,1,.174-.7,3.485,3.485,0,0,1,.61-.767,8.9,8.9,0,0,1,1.742-1.342,3.154,3.154,0,0,1,1.324-.558,1.08,1.08,0,0,1,.645.227.61.61,0,0,1,.314.47,3.485,3.485,0,0,1-.192,1.324.68.68,0,0,1-.662.4,1.516,1.516,0,0,1-.558-.1,1.133,1.133,0,0,1-.453-.314Z" transform="translate(14.418 3.274)" fill="#e1e1e1"/>
        <path id="Path_335" data-name="Path 335" d="M25.386,9.046h-.192a1.289,1.289,0,0,1-.488,0,.451.451,0,0,1-.1-.244c0-.122.157-.3.436-.558A10.019,10.019,0,0,1,26.222,7.3c.767-1.568,1.289-2.544,1.533-2.962a2,2,0,0,1,.61-.732h.279a1.011,1.011,0,0,0,.3,0l.331-.157A1.359,1.359,0,0,1,29.9,3a.47.47,0,0,1,.348.122.889.889,0,0,1,.226.366.871.871,0,0,0,0,.209.767.767,0,0,1,0,.157A5.332,5.332,0,0,1,29.9,5.022,14.949,14.949,0,0,0,28.871,7.13h.645c.575,0,.871.174.889.383a1.342,1.342,0,0,1-.314.714,2.211,2.211,0,0,0-.192.261l-.1.139a.8.8,0,0,1-.749.383H28.034a6.482,6.482,0,0,0-.575,1.254,3,3,0,0,0-.209,1.011,1.011,1.011,0,0,0,.227.7.923.923,0,0,0,.68.227,3.154,3.154,0,0,0,1.011-.209,3.049,3.049,0,0,1,.732-.226.418.418,0,0,1,.47.47c0,.3-.4.7-1.22,1.2a4.9,4.9,0,0,1-2.6.767,1.829,1.829,0,0,1-1.464-.749,2.457,2.457,0,0,1-.61-1.6,4.861,4.861,0,0,1,.4-1.342A4.177,4.177,0,0,0,25.386,9.046Z" transform="translate(18.108 2.227)" fill="#e1e1e1"/>
        <path id="Path_336" data-name="Path 336" d="M35,10.095a7.858,7.858,0,0,1-1.429,1.359,5.227,5.227,0,0,1-1.464.784c-.523.192-1.028.348-1.516.488a6.4,6.4,0,0,1-.889.192.941.941,0,0,1-.767-.436,1.742,1.742,0,0,1-.3-1.028,2.526,2.526,0,0,1,.244-.906A12.6,12.6,0,0,1,29.7,9.154a9.182,9.182,0,0,1,1.551-1.9,14.949,14.949,0,0,1,2.213-1.742,9.165,9.165,0,0,1,1.742-.871,4.182,4.182,0,0,1,1.429-.331,3.154,3.154,0,0,1,1.481.348c.418.209.645.47.645.732A9.1,9.1,0,0,1,38.52,6.4c-.174.592-.314,1.133-.436,1.638l-.558,2.7a11.063,11.063,0,0,0-.209,1.289,1.132,1.132,0,0,0,.1.453.958.958,0,0,1,.1.331.558.558,0,0,1-.226.4.767.767,0,0,1-.558.227,1.028,1.028,0,0,1-.331,0,1.1,1.1,0,0,0-.348,0,.523.523,0,0,0-.209,0h-.192a.627.627,0,0,1-.592-.488,4.53,4.53,0,0,1-.174-1.5v-.54C34.9,10.722,34.965,10.356,35,10.095Zm-3.067,1.028a2.823,2.823,0,0,0,1.411-.749A12.772,12.772,0,0,0,35.192,8.4a14.862,14.862,0,0,0,1.045-1.62,2.666,2.666,0,0,0,.418-.993.1.1,0,0,0,0-.1H36.5a2.979,2.979,0,0,0-1.342.732,15.683,15.683,0,0,0-1.951,1.847,9.723,9.723,0,0,0-1.1,1.481,2.614,2.614,0,0,0-.383,1.133.4.4,0,0,0,0,.227A1.836,1.836,0,0,0,31.933,11.123Z" transform="translate(21.196 3.199)" fill="#e1e1e1"/>
        <path id="Path_337" data-name="Path 337" d="M40.56,8.844a8.52,8.52,0,0,0-1.324,2.126c-.4.854-.645,1.324-.7,1.411a3.589,3.589,0,0,1-.906.767,2.161,2.161,0,0,1-.941.418,1.254,1.254,0,0,1-.889-.505,1.446,1.446,0,0,1-.453-.871c0-.174.139-.348.4-.54a2.631,2.631,0,0,0,.54-.47,2.77,2.77,0,0,0,.453-1.133A9.042,9.042,0,0,0,36.9,8.3a.679.679,0,0,0,0-.383.436.436,0,0,0-.348-.1,1.133,1.133,0,0,1-.54-.122.4.4,0,0,1-.192-.331c0-.244.174-.47.488-.714a2.021,2.021,0,0,1,1.063-.383,1.742,1.742,0,0,0,.749-.227,1.359,1.359,0,0,1,.436-.3.47.47,0,0,1,.436.314,2.335,2.335,0,0,1,.139.906,6.97,6.97,0,0,1-.157,1.324,20.115,20.115,0,0,1-.523,2.143l.314-.575a10.907,10.907,0,0,1,1.307-2.073,2.911,2.911,0,0,1-.139-.523,5.23,5.23,0,0,1,0-.558,3.084,3.084,0,0,1,.174-1.1,1.429,1.429,0,0,1,.436-.68l.941-.627a1.254,1.254,0,0,1,.436-.3c.209,0,.4.174.61.54a2.108,2.108,0,0,1,.3.889,4.18,4.18,0,0,1-.3.627,2.039,2.039,0,0,0-.314.976.819.819,0,0,0,.279.54,1.1,1.1,0,0,1,.261.749,1.741,1.741,0,0,1,0,.348.557.557,0,0,1-.139.209,1.742,1.742,0,0,1-.61.3,2.073,2.073,0,0,1-.662.192.7.7,0,0,1-.436-.139,1.185,1.185,0,0,1-.348-.383Z" transform="translate(26.177 2.969)" fill="#e1e1e1"/>
        <path id="Path_338" data-name="Path 338" d="M45.739,7.171a12.789,12.789,0,0,0-1.15-2.439,5.227,5.227,0,0,0-1.237-1.516,4.216,4.216,0,0,0-1.342-.54c-.505-.157-.767-.331-.767-.488s.279-.436.836-.7a3.676,3.676,0,0,1,1.394-.4,3.119,3.119,0,0,1,1.411.453,6.325,6.325,0,0,1,1.5,1.167,6.6,6.6,0,0,1,1.394,2.23,7.91,7.91,0,0,1,.47,2.77,8.242,8.242,0,0,1-.366,2.422,11.151,11.151,0,0,1-1.045,2.352,7.753,7.753,0,0,1-1.255,1.324,1.411,1.411,0,0,0-.227.192,6.76,6.76,0,0,1-1.742,1.15,3.833,3.833,0,0,1-1.533.418,1.742,1.742,0,0,1-1.394-.54,2.126,2.126,0,0,1-.505-1.481,6.256,6.256,0,0,1,.261-1.342,7.753,7.753,0,0,1,.505-1.446A6.273,6.273,0,0,1,42.69,8.826a12.771,12.771,0,0,1,3.049-1.655Zm.227,1.045a10.158,10.158,0,0,0-2.213,2.544,4.879,4.879,0,0,0-.871,2.37.749.749,0,0,0,.157.523.558.558,0,0,0,.436.157,2.213,2.213,0,0,0,1.742-1.272,5.523,5.523,0,0,0,.8-2.945c0-.209,0-.436,0-.645A5.557,5.557,0,0,0,45.966,8.216Z" transform="translate(29.762 0.809)" fill="#e1e1e1"/>
        <path id="Path_339" data-name="Path 339" d="M54.16,16.308a69.852,69.852,0,0,0,10.75-2.161q3.92-1.237,3.92-2.4,0-.732-1.045-1.1a9.618,9.618,0,0,0-3.049-.366H62.105a11.464,11.464,0,0,1-1.829-.087,2.979,2.979,0,0,1-1.167-.436,1.516,1.516,0,0,1-.418-.418,4.635,4.635,0,0,0-.488-.505,1.6,1.6,0,0,0-.923-.3h-.488a.906.906,0,0,1-.575-.279,1.063,1.063,0,0,1-.192-.662,2.858,2.858,0,0,1,.645-1.742,8.381,8.381,0,0,1,1.742-1.742A17.72,17.72,0,0,1,61.583,2.37,36.275,36.275,0,0,1,65.747.8c.819-.227,1.62-.418,2.387-.558a13.242,13.242,0,0,1,2-.192A2.526,2.526,0,0,1,71.392.3a.889.889,0,0,1,.4.819q0,.418-.784,1.254c-.261.279-.47.505-.592.662a2.875,2.875,0,0,0-.314.436c-.227.383-.488.575-.749.575a.436.436,0,0,1-.348-.174.714.714,0,0,1-.139-.418.436.436,0,0,1,0-.139V3.136a.366.366,0,0,0-.1-.3.645.645,0,0,0-.4-.1,6.691,6.691,0,0,0-1.063.122l-1.742.331c-1.1.244-2.056.47-2.857.7a18.625,18.625,0,0,0-1.986.61,7.475,7.475,0,0,0-1.986.993,1.411,1.411,0,0,0-.68,1.045.819.819,0,0,0,.61.749,5.663,5.663,0,0,0,1.917.244h3.345a17.424,17.424,0,0,1,5.837.7,2.37,2.37,0,0,1,1.847,2.2,2.631,2.631,0,0,1-.366,1.342,3.345,3.345,0,0,1-1.063,1.1l-.558.348a23.3,23.3,0,0,0-2.282,1.568,9.513,9.513,0,0,1-2.979,1.568l-.348.1c-2.648.854-5.227,1.551-7.666,2.091a29.812,29.812,0,0,1-5.088.784,1.464,1.464,0,0,1-.749-.139.4.4,0,0,1-.261-.383c0-.227.314-.575.941-1.011a3.694,3.694,0,0,0,1.063-.889.891.891,0,0,0,0-.174,1.742,1.742,0,0,1,.523-.749,16.084,16.084,0,0,1,1.742-1.237,2.561,2.561,0,0,1,.958-.47.488.488,0,0,1,.279.087.279.279,0,0,1,.1.209c0,.192-.279.54-.854,1.045Z" transform="translate(37.231 0.035)" fill="#e1e1e1"/>
        <path id="Path_340" data-name="Path 340" d="M66.829,11.27a1.638,1.638,0,0,0,.645.645,1.742,1.742,0,0,0,.906.227,2.4,2.4,0,0,0,1.22-.366,3.728,3.728,0,0,1,.7-.366.418.418,0,0,1,.314.1.366.366,0,0,1,.122.279c0,.331-.366.68-1.1,1.063a4.234,4.234,0,0,1-1.934.592,7.353,7.353,0,0,1-1.272-.174,9.357,9.357,0,0,0-1.446-.157,1.185,1.185,0,0,1-1.011-.575,2.945,2.945,0,0,1-.418-1.742,5.384,5.384,0,0,1,.54-2.021A8.38,8.38,0,0,1,65.435,6.67a8.886,8.886,0,0,1,2.056-1.742,3.694,3.694,0,0,1,1.742-.7,1.063,1.063,0,0,1,.906.436,2.108,2.108,0,0,1,.331,1.22,2.718,2.718,0,0,1-.244,1.1h0a2.282,2.282,0,0,0-.139.575,2.283,2.283,0,0,1-.139.575,5.07,5.07,0,0,1-1.2,1.742A6.185,6.185,0,0,1,66.829,11.27Zm-.279-.958a6.168,6.168,0,0,0,1.742-1.742,3.485,3.485,0,0,0,.7-1.9.783.783,0,0,0,0-.383.244.244,0,0,0-.227-.139c-.488,0-.976.418-1.429,1.254a6.446,6.446,0,0,0-.784,2.91Z" transform="translate(47.108 3.14)" fill="#e1e1e1"/>
        <path id="Path_341" data-name="Path 341" d="M71.921,11.255a1.783,1.783,0,0,0,1.568.871,2.4,2.4,0,0,0,1.22-.366,3.223,3.223,0,0,1,.7-.366.488.488,0,0,1,.314.1.453.453,0,0,1,.122.279c0,.331-.383.68-1.115,1.063a4.129,4.129,0,0,1-1.917.592,7.7,7.7,0,0,1-1.289-.174,8.955,8.955,0,0,0-1.429-.157,1.185,1.185,0,0,1-1.028-.575,3.1,3.1,0,0,1-.4-1.742A5.07,5.07,0,0,1,69.255,8.8,7.91,7.91,0,0,1,70.6,6.69a8.712,8.712,0,0,1,2.039-1.742,3.816,3.816,0,0,1,1.742-.7,1.045,1.045,0,0,1,.906.436,1.986,1.986,0,0,1,.331,1.22A2.457,2.457,0,0,1,75.371,7h0a3.868,3.868,0,0,0-.122.575,3.136,3.136,0,0,1-.157.575A4.774,4.774,0,0,1,73.907,9.9a6.063,6.063,0,0,1-1.986,1.359ZM71.66,10.3A6.168,6.168,0,0,0,73.4,8.554a3.589,3.589,0,0,0,.7-1.9.784.784,0,0,0,0-.383.279.279,0,0,0-.227-.139c-.505,0-.976.418-1.429,1.254a6.046,6.046,0,0,0-.784,2.91Z" transform="translate(50.902 3.154)" fill="#e1e1e1"/>
        <path id="Path_342" data-name="Path 342" d="M79.267,7.171a13.938,13.938,0,0,0-1.15-2.439,5.541,5.541,0,0,0-1.324-1.516,4.217,4.217,0,0,0-1.254-.54c-.523-.157-.767-.331-.767-.488s.279-.436.836-.7A3.589,3.589,0,0,1,77,1.09a3.189,3.189,0,0,1,1.411.453,6.325,6.325,0,0,1,1.5,1.167,6.6,6.6,0,0,1,1.394,2.23,8.328,8.328,0,0,1,.453,2.77,8.224,8.224,0,0,1-.348,2.422,11.152,11.152,0,0,1-1.063,2.4,7.754,7.754,0,0,1-1.255,1.324,1.411,1.411,0,0,0-.226.192,7.074,7.074,0,0,1-1.742,1.15,3.833,3.833,0,0,1-1.533.418,1.742,1.742,0,0,1-1.394-.54,2.126,2.126,0,0,1-.505-1.481,6.254,6.254,0,0,1,.261-1.342,7.752,7.752,0,0,1,.505-1.446A6.272,6.272,0,0,1,76.2,8.878a12.772,12.772,0,0,1,3.067-1.708Zm.209,1.045a10.455,10.455,0,0,0-2.2,2.544,4.879,4.879,0,0,0-.871,2.37.854.854,0,0,0,.139.523.627.627,0,0,0,.453.157,2.213,2.213,0,0,0,1.742-1.272,5.506,5.506,0,0,0,.784-2.945V8.948c0-.209-.07-.488-.07-.732Z" transform="translate(54.638 0.809)" fill="#e1e1e1"/>
        <path id="Path_343" data-name="Path 343" d="M89.55,12.2a9.339,9.339,0,0,1,2-.993,5.419,5.419,0,0,1,1.742-.279,5.889,5.889,0,0,1,1.446.192,11.22,11.22,0,0,1,1.742.7l.383.209a3.136,3.136,0,0,0,1.586.47c.139,0,.279.139.383.418a2.7,2.7,0,0,1,.157.958,1.865,1.865,0,0,1-.348,1.011.958.958,0,0,1-.749.523,6.5,6.5,0,0,1-1.917-.819l-1.272-.645a7.754,7.754,0,0,0-1.742-.627,6.272,6.272,0,0,0-1.638-.227,4.687,4.687,0,0,0-1.864.366,4.809,4.809,0,0,0-1.586,1.1,10.455,10.455,0,0,0-.941,1.15c-.4.523-.7.784-.906.784a.558.558,0,0,1-.348-.122.418.418,0,0,1-.122-.314,35.754,35.754,0,0,1,3.485-6.185l.157-.244c.209-.348.47-.784.819-1.307a4.2,4.2,0,0,0,.645-1.342,1.254,1.254,0,0,0-.139-.418,1.307,1.307,0,0,1-.122-.488c0-.209.4-.767,1.237-1.742.575-.61,1.063-1.133,1.429-1.568l.575-.662Q95.561,0,96.676,0c.157,0,.314.192.453.558a2.806,2.806,0,0,1,.209.976,2.143,2.143,0,0,1-.261.958,5.558,5.558,0,0,1-.784,1.133c-1.742,1.986-3.154,3.642-4.217,4.983A36.33,36.33,0,0,0,89.55,12.2Z" transform="translate(63.451)" fill="#e1e1e1"/>
        <path id="Path_344" data-name="Path 344" d="M100.44,10.095a7.857,7.857,0,0,1-1.429,1.359,5.105,5.105,0,0,1-1.446.784c-.54.192-1.045.348-1.533.488a6.4,6.4,0,0,1-.889.192.941.941,0,0,1-.767-.436,1.742,1.742,0,0,1-.3-1.028,2.526,2.526,0,0,1,.244-.906,12.6,12.6,0,0,1,.819-1.394,9.182,9.182,0,0,1,1.551-1.9,14.95,14.95,0,0,1,2.213-1.742,9.165,9.165,0,0,1,1.742-.871,4.182,4.182,0,0,1,1.429-.331,3.154,3.154,0,0,1,1.481.348c.418.209.645.47.645.732A9.091,9.091,0,0,1,103.96,6.4c-.174.592-.314,1.133-.436,1.638-.226.993-.418,1.847-.558,2.561a9.2,9.2,0,0,0-.227,1.289,1.133,1.133,0,0,0,.1.453.767.767,0,0,1,.122.331.592.592,0,0,1-.244.4.767.767,0,0,1-.558.227,1.028,1.028,0,0,1-.331,0,1.011,1.011,0,0,0-.348,0,.523.523,0,0,0-.209,0h-.192c-.261,0-.453-.157-.592-.488a4.53,4.53,0,0,1-.174-1.5v-.54C100.318,10.583,100.405,10.356,100.44,10.095Zm-3.014,1.028a2.753,2.753,0,0,0,1.411-.749A12.771,12.771,0,0,0,100.684,8.4a14.861,14.861,0,0,0,1.1-1.62,2.665,2.665,0,0,0,.418-.993.1.1,0,0,0,0-.1h-.157a2.979,2.979,0,0,0-1.342.732A15.681,15.681,0,0,0,98.645,8.23a9.721,9.721,0,0,0-1.1,1.481,2.614,2.614,0,0,0-.383,1.133.4.4,0,0,0,0,.227A.884.884,0,0,0,97.426,11.123Z" transform="translate(69.775 3.199)" fill="#e1e1e1"/>
        <path id="Path_345" data-name="Path 345" d="M105.827,9.379a33.51,33.51,0,0,1-2.875,3.241,2.544,2.544,0,0,1-1.5.749.68.68,0,0,1-.558-.192.854.854,0,0,1-.174-.61,3.9,3.9,0,0,1,.192-1.08c.122-.47.331-1.115.627-1.969s.645-1.742.941-2.526a9.006,9.006,0,0,1,.505-1.185,2.875,2.875,0,0,1,.767-.662,1.951,1.951,0,0,1,.889-.436c.209,0,.383.157.558.453a1.743,1.743,0,0,1,.244.68,15.106,15.106,0,0,1-.68,1.586c-.453.993-.871,1.986-1.255,3a16.572,16.572,0,0,0,2.283-2.282,4.3,4.3,0,0,0,.993-1.742,1.446,1.446,0,0,1,.7-.923,2.091,2.091,0,0,1,1.011-.453.54.54,0,0,1,.418.209.7.7,0,0,1,.174.488,8,8,0,0,1-.47,1.742,6.725,6.725,0,0,0-.488,2.3,2.16,2.16,0,0,0,.261,1.115c.174.3.366.453.592.453a1.08,1.08,0,0,0,.7-.4,2.857,2.857,0,0,0,.627-.993,4.791,4.791,0,0,1-.418-1.376,9.968,9.968,0,0,1-.157-1.742,2.37,2.37,0,0,1,.558-1.6,1.62,1.62,0,0,1,1.22-.645c.244,0,.436.209.61.61a3.659,3.659,0,0,1,.261,1.429v.958a6.464,6.464,0,0,1-.157,1.742,1.132,1.132,0,0,1-.54.68,8.276,8.276,0,0,1-1.917,2.3,3.189,3.189,0,0,1-2.056.871,1.742,1.742,0,0,1-.767-.157,2.8,2.8,0,0,1-.732-.627,1.882,1.882,0,0,1-.383-.558A3.05,3.05,0,0,1,105.74,11v-.976A3.834,3.834,0,0,1,105.827,9.379Z" transform="translate(74.703 3.393)" fill="#e1e1e1"/>
        <path id="Path_346" data-name="Path 346" d="M113.868,7.991a19.462,19.462,0,0,0-1.9,2.962c-.54,1.045-.819,1.586-.854,1.62l-.662.261a2.248,2.248,0,0,1-.627.157.767.767,0,0,1-.732-.366,4.077,4.077,0,0,1-.209-1.638c0-1.446,0-2.648.087-3.624a7.509,7.509,0,0,1,.244-1.742,2.4,2.4,0,0,1,.906-.871,2.422,2.422,0,0,1,1.08-.47.54.54,0,0,1,.47.244,1.011,1.011,0,0,1,.192.592.384.384,0,0,1,0,.174.976.976,0,0,1-.122.227c-.122.714-.227,1.429-.3,2.143s0,1.411,0,2.126v.61a26.836,26.836,0,0,1,1.742-3.119,12.3,12.3,0,0,1,1.6-1.934,2.439,2.439,0,0,1,.7-.314,2.631,2.631,0,0,1,.836-.174.784.784,0,0,1,.488.157.4.4,0,0,1,.192.366,7.876,7.876,0,0,1-.662,1.742l-.627,1.464q-1.516,3.607-2.2,5.488a21.7,21.7,0,0,0-.889,3.049,2.875,2.875,0,0,0,1.464-1.446c.366-.714.61-1.08.749-1.08a.279.279,0,0,1,.226.122.505.505,0,0,1,0,.331,3.241,3.241,0,0,1-.4,1.185,6.969,6.969,0,0,1-.993,1.5,5.384,5.384,0,0,1-1.22,1.028,2.178,2.178,0,0,1-.993.436c-.209,0-.418-.192-.61-.592a3.014,3.014,0,0,1-.279-1.324,13.941,13.941,0,0,1,.836-3.032C112.056,12.678,112.84,10.57,113.868,7.991Z" transform="translate(80.758 3.177)" fill="#e1e1e1"/>
        <path id="Path_347" data-name="Path 347" d="M117.441,11.292a1.783,1.783,0,0,0,1.568.871,2.4,2.4,0,0,0,1.22-.366,3.223,3.223,0,0,1,.7-.366.488.488,0,0,1,.314.1.453.453,0,0,1,.122.279c0,.331-.383.68-1.115,1.063a4.129,4.129,0,0,1-1.917.592,7.7,7.7,0,0,1-1.289-.174,8.956,8.956,0,0,0-1.429-.157,1.185,1.185,0,0,1-1.028-.627,3.1,3.1,0,0,1-.4-1.742,5.07,5.07,0,0,1,.54-2.021,7.91,7.91,0,0,1,1.342-2.108A8.712,8.712,0,0,1,118.1,4.9a3.816,3.816,0,0,1,1.742-.7,1.045,1.045,0,0,1,.906.436,1.986,1.986,0,0,1,.331,1.22,2.457,2.457,0,0,1-.244,1.1h0a3.871,3.871,0,0,0-.122.575,3.135,3.135,0,0,1-.157.575,4.774,4.774,0,0,1-1.185,1.742,6.064,6.064,0,0,1-1.934,1.446Zm-.261-.958a6.168,6.168,0,0,0,1.742-1.742,3.589,3.589,0,0,0,.7-1.9.784.784,0,0,0,0-.383.279.279,0,0,0-.226-.139c-.505,0-.976.418-1.429,1.254a6.046,6.046,0,0,0-.784,2.91Z" transform="translate(84.694 3.117)" fill="#e1e1e1"/>
        <path id="Path_348" data-name="Path 348" d="M124.437,8.844a8.537,8.537,0,0,0-1.342,2.126c-.4.854-.627,1.324-.7,1.411a3.589,3.589,0,0,1-.906.767,2.039,2.039,0,0,1-.923.418,1.255,1.255,0,0,1-.906-.505,1.446,1.446,0,0,1-.453-.871c0-.174.139-.348.4-.54a2.231,2.231,0,0,0,.54-.47,2.77,2.77,0,0,0,.453-1.133,7.822,7.822,0,0,0,.174-1.742.644.644,0,0,0,0-.383.436.436,0,0,0-.348-.1,1.045,1.045,0,0,1-.523-.122.366.366,0,0,1-.192-.331c0-.244.157-.47.488-.714a1.917,1.917,0,0,1,1.045-.383A1.742,1.742,0,0,0,122,6.039a1.481,1.481,0,0,1,.505-.209.453.453,0,0,1,.436.314,2.335,2.335,0,0,1,.139.906,8.361,8.361,0,0,1-.139,1.324c-.1.505-.279,1.22-.54,2.143l.314-.575a10.908,10.908,0,0,1,1.307-2.073,2.842,2.842,0,0,1-.122-.523,2.754,2.754,0,0,1,0-.558,3.084,3.084,0,0,1,.174-1.1,1.342,1.342,0,0,1,.453-.68,10.991,10.991,0,0,1,.923-.627A1.568,1.568,0,0,1,125.814,4c.209,0,.4.174.61.54a1.882,1.882,0,0,1,.3.889,2.789,2.789,0,0,1-.3.627,1.986,1.986,0,0,0-.3.976.854.854,0,0,0,.261.54,1.1,1.1,0,0,1,.261.749.975.975,0,0,1,0,.348.505.505,0,0,1-.122.209,2.109,2.109,0,0,1-.714.348,2.248,2.248,0,0,1-.679.192.645.645,0,0,1-.383-.157,1.028,1.028,0,0,1-.314-.418Z" transform="translate(88.431 2.969)" fill="#e1e1e1"/>
        <path id="Path_349" data-name="Path 349" d="M128.591,6.406a1.045,1.045,0,0,0-.157.261.557.557,0,0,0,0,.244,5.122,5.122,0,0,0,.749,1.429,3.938,3.938,0,0,1,.749,2A2.805,2.805,0,0,1,128.66,12.5a4.565,4.565,0,0,1-2.892.976,3.676,3.676,0,0,1-1.6-.279.836.836,0,0,1-.575-.784,1.847,1.847,0,0,1,.627-1.185,1.742,1.742,0,0,1,1.045-.662c.279,0,.575.244.854.749s.558.767.784.767a.261.261,0,0,0,.244-.122.47.47,0,0,0,.087-.331,3.885,3.885,0,0,0-.767-2.317,3.328,3.328,0,0,1-.784-1.533,1.5,1.5,0,0,1,.192-.7,3.38,3.38,0,0,1,.592-.767,9.478,9.478,0,0,1,1.742-1.342,3.258,3.258,0,0,1,1.324-.558,1.045,1.045,0,0,1,.645.227.61.61,0,0,1,.314.47,3.155,3.155,0,0,1-.192,1.324.662.662,0,0,1-.662.4,1.411,1.411,0,0,1-.54-.1,1.132,1.132,0,0,1-.505-.331Z" transform="translate(91.683 3.281)" fill="#e1e1e1"/>
      </g>
    </g>
    <g id="Layer_2-2" data-name="Layer 2" transform="translate(328 70)">
      <g id="圖層_1-2" data-name="圖層 1">
        <path id="Path_350" data-name="Path 350" d="M38.141,1.689q-1.272.835-2.623,1.848c-.874.7-1.769,1.451-2.7,2.266L31.582,6.9C30.052,8.268,29.237,9,29.158,9.122h0a1.014,1.014,0,0,1-.258.258H27.727a.258.258,0,0,1-.139-.119.338.338,0,0,1,0-.2,1.351,1.351,0,0,1,.239-.477.894.894,0,0,1,.378-.278,9.679,9.679,0,0,0,1.471-1.113l.735-.676c2.683-2.226,4.79-3.975,6.32-4.989A9.6,9.6,0,0,1,39.572,0a.437.437,0,0,1,.258.2.894.894,0,0,1,0,.358c0,.238,0,.437,0,.636V1.51A14.051,14.051,0,0,1,38.817,3.3c-.656,1.073-1.252,2.127-1.769,3.16,1.312-1.113,2.345-1.987,3.12-2.5a8.725,8.725,0,0,1,1.987-1.133,2.286,2.286,0,0,1,.616-.318.676.676,0,0,1,.437,0,.477.477,0,0,1,.358.358,1.59,1.59,0,0,1,0,.795,10.4,10.4,0,0,1-1.232,2.067l-.537.835-.636,1.093a3.2,3.2,0,0,0-.239.556.656.656,0,0,0,0,.278.219.219,0,0,0,.179.139.567.567,0,0,0,.437-.159c.179-.159.318-.2.4-.179a.3.3,0,0,1,.179.119.318.318,0,0,1,0,.2.954.954,0,0,1-.2.3,2.862,2.862,0,0,1-.437.378,1.987,1.987,0,0,1-.815.358,1.848,1.848,0,0,1-.715.1h-.7a.5.5,0,0,1-.358-.378,1.451,1.451,0,0,1,0-.815A18.742,18.742,0,0,1,41,5.227l.974-1.371a29.037,29.037,0,0,0-3.2,2.425L37.008,7.711a3.3,3.3,0,0,1-.835.517,1.153,1.153,0,0,1-.656,0,.835.835,0,0,1-.4-.338.616.616,0,0,1-.159-.5l1.033-2.146c.278-.576.6-1.153.934-1.729S37.7,2.305,38.141,1.689Z" transform="translate(27.242)" fill="#e1e1e1"/>
        <path id="Path_351" data-name="Path 351" d="M39.32,6.671a15.322,15.322,0,0,1-1.55.835,3.14,3.14,0,0,1-.994.318H36.12a1.491,1.491,0,0,1-.616,0,.775.775,0,0,1-.318-.517.874.874,0,0,1,0-.6,4.553,4.553,0,0,1,.378-.517c.219-.278.457-.576.715-.855s.874-.914,1.212-1.212a2.9,2.9,0,0,1,.775-.556.735.735,0,0,1,.3,0h.318a1.014,1.014,0,0,1,.7,0c.119,0,.179.219.2.457a1.053,1.053,0,0,1,0,.5A5.048,5.048,0,0,1,39,5.24h-.119l-.676.556a4.094,4.094,0,0,0-.835.775.258.258,0,0,0,0,.159c.179.1.795-.2,1.809-.855l1.351-.855a1.192,1.192,0,0,1,.556-.139,2.266,2.266,0,0,1,.5,0,.358.358,0,0,1,.179.358,1.133,1.133,0,0,1-.159.616,8.287,8.287,0,0,1-.795,1.133,5.823,5.823,0,0,0-.755,1.053,1.988,1.988,0,0,0-.139.417,1.252,1.252,0,0,1,0,.3c0,.159-.3.278-.676.358a1.192,1.192,0,0,1-.795,0c-.119,0-.2-.179-.238-.378a.6.6,0,0,1,0-.457s.238-.4.676-1.014A7.147,7.147,0,0,1,39.32,6.671Z" transform="translate(34.709 3.465)" fill="#e1e1e1"/>
        <path id="Path_352" data-name="Path 352" d="M42.4,6.3h-.179v.119a2.743,2.743,0,0,0-.1,1.014,2.723,2.723,0,0,1-.3,1.312,1.789,1.789,0,0,1-1.431.715,2.842,2.842,0,0,1-1.868-.477,2.4,2.4,0,0,1-.755-.715.557.557,0,0,1,0-.6,1.153,1.153,0,0,1,.537-.338.994.994,0,0,1,.775,0c.159,0,.219.338.2.7s0,.6.159.676a.159.159,0,0,0,.159,0,.358.358,0,0,0,.258-.1A2.544,2.544,0,0,0,40.3,7.1a2.365,2.365,0,0,1,0-1.093.994.994,0,0,1,.338-.3,1.391,1.391,0,0,1,.576-.2,6.7,6.7,0,0,1,1.371-.139,1.987,1.987,0,0,1,.894.179.6.6,0,0,1,.278.338.378.378,0,0,1,0,.358,2.346,2.346,0,0,1-.556.636.417.417,0,0,1-.5,0,.736.736,0,0,1-.2-.258A.656.656,0,0,1,42.4,6.3Z" transform="translate(37.23 5.302)" fill="#e1e1e1"/>
        <path id="Path_353" data-name="Path 353" d="M41.988,7.794h0a1.054,1.054,0,0,1-.219-.219.159.159,0,0,1,0-.159,1.078,1.078,0,0,0,.437-.119,8.486,8.486,0,0,1,.974,0l1.987-.855a1.093,1.093,0,0,1,.6-.1H46.3a1.172,1.172,0,0,1,.378.119.238.238,0,0,1,.119.2.5.5,0,0,1,0,.278v.119h0a2.8,2.8,0,0,1-.735.338,7.949,7.949,0,0,0-1.312.616l.3.278c.258.258.358.437.258.537a.889.889,0,0,1-.457.219h-.318a.517.517,0,0,1-.517-.119l-.179-.139-.318-.278a6.956,6.956,0,0,0-.775.4,2.186,2.186,0,0,0-.755.735.636.636,0,0,0-.179.437.616.616,0,0,0,.238.378,1.669,1.669,0,0,0,.6.3,1.749,1.749,0,0,1,.437.179.238.238,0,0,1,.119.2.278.278,0,0,1,0,.219c-.119.159-.5.179-1.093.119a2.961,2.961,0,0,1-1.57-.676A1.133,1.133,0,0,1,40,9.861a1.57,1.57,0,0,1,.338-1.033,2.922,2.922,0,0,1,.735-.5Z" transform="translate(39.514 6.257)" fill="#e1e1e1"/>
        <path id="Path_354" data-name="Path 354" d="M45.346,11.649a5.962,5.962,0,0,1-1.232,0,3.538,3.538,0,0,1-1.014-.318,9.142,9.142,0,0,1-.874-.5,2.922,2.922,0,0,1-.477-.318.557.557,0,0,1-.139-.537,1.173,1.173,0,0,1,.358-.6,1.371,1.371,0,0,1,.437-.338,8.208,8.208,0,0,1,.994-.238,5.625,5.625,0,0,1,1.53-.1,8.208,8.208,0,0,1,1.729.278,6.241,6.241,0,0,1,1.173.417,3.041,3.041,0,0,1,.775.517,1.987,1.987,0,0,1,.5.815v.636l-.576.318-.934.537c-.556.318-1.033.6-1.411.855a5.663,5.663,0,0,0-.7.457.715.715,0,0,0-.159.238.557.557,0,0,1,0,.2.417.417,0,0,1-.3,0,.676.676,0,0,1-.338-.159.576.576,0,0,1-.119-.2.716.716,0,0,0,0-.179h-.119a.417.417,0,0,1,0-.477,2.9,2.9,0,0,1,.616-.755l.258-.219Zm-1.809-.954a1.65,1.65,0,0,0,.974.318,6.916,6.916,0,0,0,1.689,0,8.427,8.427,0,0,0,1.232-.2,1.53,1.53,0,0,0,.636-.258h0a1.987,1.987,0,0,0-.914-.3,9.3,9.3,0,0,0-1.709,0,5.962,5.962,0,0,0-1.153.139,1.749,1.749,0,0,0-.7.318v.119s-.079-.179-.06-.139Z" transform="translate(41.084 8.584)" fill="#e1e1e1"/>
        <path id="Path_355" data-name="Path 355" d="M47.88,13.945a5.326,5.326,0,0,0-1.55.1l-.994.159a2.484,2.484,0,0,1-.715-.159,1.371,1.371,0,0,1-.576-.338.735.735,0,0,1-.02-.576.974.974,0,0,1,.278-.556.537.537,0,0,1,.437,0,1.63,1.63,0,0,0,.437.1,1.987,1.987,0,0,0,.755-.2,4.769,4.769,0,0,0,.974-.576s.159-.139.159-.179a.258.258,0,0,0,0-.219.537.537,0,0,1-.258-.358.179.179,0,0,1,.1-.219.556.556,0,0,1,.537,0,1.212,1.212,0,0,1,.6.4,1.053,1.053,0,0,0,.4.3.8.8,0,0,1,.278.179.3.3,0,0,1,0,.338,1.987,1.987,0,0,1-.417.417,7.772,7.772,0,0,1-.735.4c-.3.159-.735.318-1.292.537h.4a7.234,7.234,0,0,1,1.55-.1l.219-.258.278-.219a2.127,2.127,0,0,1,.616-.338.934.934,0,0,1,.517,0l.676.238a.345.345,0,0,1,.3.159,4.109,4.109,0,0,1,0,.517,1.232,1.232,0,0,1-.338.477h-.437a1.173,1.173,0,0,0-.6.219.517.517,0,0,0-.2.338.636.636,0,0,1-.278.417H48.6a1.351,1.351,0,0,1-.4-.2,2.186,2.186,0,0,1-.338-.278.457.457,0,0,1,0-.258.7.7,0,0,1,.02-.258Z" transform="translate(43.439 10.719)" fill="#e1e1e1"/>
        <path id="Path_356" data-name="Path 356" d="M51.424,16.175a8.864,8.864,0,0,0,.994-1.411,3.3,3.3,0,0,0,.417-1.192,2.286,2.286,0,0,0,0-.874c0-.338,0-.517,0-.576s.318,0,.636.258a2.226,2.226,0,0,1,.656.636,1.988,1.988,0,0,1,.179.914,4.133,4.133,0,0,1-.179,1.192,4.233,4.233,0,0,1-.795,1.471,5.625,5.625,0,0,1-1.391,1.113,5.068,5.068,0,0,1-1.451.537,6.28,6.28,0,0,1-1.65.159,4.154,4.154,0,0,1-1.113-.278h-.179a4.611,4.611,0,0,1-1.173-.576,2.544,2.544,0,0,1-.7-.715,1.133,1.133,0,0,1-.159-.954,1.312,1.312,0,0,1,.656-.735,3.558,3.558,0,0,1,.835-.278,5.008,5.008,0,0,1,.954-.179,4.492,4.492,0,0,1,1.63.4,8.626,8.626,0,0,1,1.828,1.093Zm-.517.437a7.115,7.115,0,0,0-2.087-.437,3.24,3.24,0,0,0-1.55.238.676.676,0,0,0-.238.238.318.318,0,0,0,0,.3,1.391,1.391,0,0,0,1.272.6,3.379,3.379,0,0,0,1.868-.457l.318-.219Z" transform="translate(44.924 11.948)" fill="#e1e1e1"/>
        <path id="Path_357" data-name="Path 357" d="M49.179,20.576a41.021,41.021,0,0,0,2.385,6.519c.755,1.55,1.391,2.305,1.987,2.226s.5-.3.576-.755a5.505,5.505,0,0,0,0-1.987,2.143,2.143,0,0,0-.159-.934,1.825,1.825,0,0,1-.139-.715,6.956,6.956,0,0,1,0-1.212,1.987,1.987,0,0,1,.139-.755,1.828,1.828,0,0,1,.238-.318,2.566,2.566,0,0,0,.258-.338.894.894,0,0,0,0-.6,1.352,1.352,0,0,1,0-.238.636.636,0,0,1,.119-.4.676.676,0,0,1,.4-.179,1.987,1.987,0,0,1,1.093.238,5.784,5.784,0,0,1,1.292.974,12.224,12.224,0,0,1,1.451,1.809A19.2,19.2,0,0,1,60.149,26.3a10.773,10.773,0,0,1,.576,1.431,6.28,6.28,0,0,1,.318,1.232,1.491,1.491,0,0,1,0,.815.557.557,0,0,1-.457.338,1.511,1.511,0,0,1-.855-.378l-.477-.318-.318-.139q-.378-.179-.417-.417a.239.239,0,0,1,0-.238.457.457,0,0,1,.238-.119h.179a.258.258,0,0,0,.179,0,.358.358,0,0,0,0-.258,4.252,4.252,0,0,0-.179-.656l-.358-1.014c-.278-.676-.5-1.232-.715-1.709a11.41,11.41,0,0,0-.576-1.192,4.949,4.949,0,0,0-.815-1.153.835.835,0,0,0-.715-.318c-.219,0-.358.179-.417.437a3.8,3.8,0,0,0,0,1.232,2.412,2.412,0,0,0,.159.835,6.539,6.539,0,0,1,.238,1.252,10.99,10.99,0,0,1,.08,3.617,1.51,1.51,0,0,1-2.107,1.212,1.987,1.987,0,0,1-.795-.556l-.258-.3a15.9,15.9,0,0,0-1.212-1.292,6.28,6.28,0,0,1-1.272-1.709l-.1-.2a38.876,38.876,0,0,1-1.987-4.611,21.425,21.425,0,0,1-1.073-3.081,1.272,1.272,0,0,1,0-.5.278.278,0,0,1,.219-.2c.139,0,.4.139.715.5a2.345,2.345,0,0,0,.656.576h.139a1.133,1.133,0,0,1,.517.238c.378.358.7.676.934.954s.378.457.378.556a.2.2,0,0,1-.119.278,1.782,1.782,0,0,1-.735-.437Z" transform="translate(46.414 18.12)" fill="#e1e1e1"/>
        <path id="Path_358" data-name="Path 358" d="M50.151,27.349a.954.954,0,0,0-.437.4,1.093,1.093,0,0,0-.159.576,1.729,1.729,0,0,0,.2.775,1.49,1.49,0,0,1,.219.457.278.278,0,0,1-.258.258c-.2,0-.417-.258-.636-.735a2.683,2.683,0,0,1-.338-1.232,5.525,5.525,0,0,1,.139-.795A4.989,4.989,0,0,0,49,26.136a.815.815,0,0,1,.417-.636,2.146,2.146,0,0,1,1.073-.219,3.2,3.2,0,0,1,1.252.4,5.585,5.585,0,0,1,1.312.874,5.844,5.844,0,0,1,1.073,1.351,2.4,2.4,0,0,1,.4,1.133.636.636,0,0,1-.3.556,1.332,1.332,0,0,1-.775.2,1.749,1.749,0,0,1-.7-.2H52.4l-.358-.119a2.9,2.9,0,0,1-1.093-.795,3.756,3.756,0,0,1-.795-1.332Zm.6-.159a4.114,4.114,0,0,0,1.093,1.173,2.345,2.345,0,0,0,1.192.477.417.417,0,0,0,.2-.139v-.139a1.574,1.574,0,0,0-.775-.914,3.975,3.975,0,0,0-1.709-.457Z" transform="translate(48.145 24.961)" fill="#e1e1e1"/>
        <path id="Path_359" data-name="Path 359" d="M49.979,30.027a1.093,1.093,0,0,0-.477.358,1.312,1.312,0,0,0-.239.537,1.63,1.63,0,0,0,.119.795,2.205,2.205,0,0,1,.159.477.219.219,0,0,1-.1.179h-.179c-.179,0-.378-.3-.556-.795a2.544,2.544,0,0,1-.179-1.272,6.6,6.6,0,0,1,.219-.775,9,9,0,0,0,.238-.874.755.755,0,0,1,.5-.616,1.868,1.868,0,0,1,1.073,0,3.14,3.14,0,0,1,1.212.517,5.525,5.525,0,0,1,1.192,1.053,5.406,5.406,0,0,1,.894,1.431,2.246,2.246,0,0,1,.258,1.192.6.6,0,0,1-.358.517,1.272,1.272,0,0,1-.795.1,1.57,1.57,0,0,1-.656-.258h0l-.358-.139a1.45,1.45,0,0,1-.338-.139,3.021,3.021,0,0,1-.974-.914,3.7,3.7,0,0,1-.656-1.371Zm.616,0a3.856,3.856,0,0,0,.934,1.292,2.306,2.306,0,0,0,1.133.616.457.457,0,0,0,.238,0,.179.179,0,0,0,.119-.139,1.317,1.317,0,0,0-.656-.994A3.975,3.975,0,0,0,50.6,30.027Z" transform="translate(47.919 27.61)" fill="#e1e1e1"/>
        <path id="Path_360" data-name="Path 360" d="M52.734,35.108a8.943,8.943,0,0,0,1.689-.3,3.657,3.657,0,0,0,1.153-.537,2.723,2.723,0,0,0,.576-.656c.179-.3.338-.417.437-.4s.2.238.278.636a2.305,2.305,0,0,1,0,.914,1.987,1.987,0,0,1-.517.775,3.18,3.18,0,0,1-.974.715,4.094,4.094,0,0,1-1.59.477,5.108,5.108,0,0,1-1.789-.2,5.486,5.486,0,0,1-1.391-.636,7,7,0,0,1-1.292-1.053,4.511,4.511,0,0,1-.6-.994v-.179a3.975,3.975,0,0,1-.4-1.232,1.988,1.988,0,0,1,0-.994A1.093,1.093,0,0,1,48.9,30.7a1.332,1.332,0,0,1,.974,0,3.975,3.975,0,0,1,.8.4,4.412,4.412,0,0,1,.775.556,3.756,3.756,0,0,1,.874,1.431,7.632,7.632,0,0,1,.417,2.027Zm-.676,0a6.1,6.1,0,0,0-1.173-1.769,3.061,3.061,0,0,0-1.252-.934.477.477,0,0,0-.338,0,.278.278,0,0,0-.179.238,1.391,1.391,0,0,0,.457,1.312,3.558,3.558,0,0,0,1.669.994l.4.1Z" transform="translate(47.669 30.22)" fill="#e1e1e1"/>
        <path id="Path_361" data-name="Path 361" d="M49.279,39.728A6.181,6.181,0,0,1,49.06,41.1a3.061,3.061,0,0,1-.477.994,3.279,3.279,0,0,1-.616.676,6.261,6.261,0,0,1-1.014.7l-.238.119a1.987,1.987,0,0,0-.795.656h-.378a1.987,1.987,0,0,1-.556-.278,1.053,1.053,0,0,1-.4-.537.576.576,0,0,1,0-.576,4.233,4.233,0,0,1,1.113-.7l.795-.437a6.519,6.519,0,0,0,.934-.656,3.756,3.756,0,0,0,.715-.795,2.962,2.962,0,0,0,.477-1.093,2.882,2.882,0,0,0,0-1.232,6.14,6.14,0,0,0-.258-.894c-.119-.4-.159-.656,0-.755a.343.343,0,0,1,.4-.139,23.114,23.114,0,0,1,1.987,3.975V40.3l.378.894a2.624,2.624,0,0,0,.417.815h.278a.835.835,0,0,1,.278.1,3.081,3.081,0,0,1,.437,1.252c.1.517.2.954.3,1.292s0,.318.139.556a3.379,3.379,0,0,1,0,2.385h-.457a1.988,1.988,0,0,1-.6-.239,1.749,1.749,0,0,1-.4-.5,4.093,4.093,0,0,1-.318-.815c-.4-1.61-.775-2.941-1.093-3.975a21.864,21.864,0,0,0-.835-2.345Z" transform="translate(43.969 35.677)" fill="#e1e1e1"/>
        <path id="Path_362" data-name="Path 362" d="M44.479,43.9a5.148,5.148,0,0,1,0-1.252,3.478,3.478,0,0,1,.278-1.014c.159-.318.3-.616.457-.894a3.1,3.1,0,0,1,.318-.5.537.537,0,0,1,.537-.139,1.093,1.093,0,0,1,.6.318,1.69,1.69,0,0,1,.3.517,4.95,4.95,0,0,1,.278.974,5.644,5.644,0,0,1,.159,1.53,7.951,7.951,0,0,1-.219,1.729,5.247,5.247,0,0,1-.378,1.192,2.921,2.921,0,0,1-.477.815,2.186,2.186,0,0,1-.795.517H44.9a6.381,6.381,0,0,1-.338-.556c-.2-.338-.4-.636-.576-.914s-.636-1.014-.914-1.391-.417-.616-.477-.676a.636.636,0,0,0-.258-.139l-.2-.1a.418.418,0,0,1,0-.3.5.5,0,0,1,.159-.338.457.457,0,0,1,.179-.119l.179-.119a.3.3,0,0,0,0-.119h0q.139-.179.477,0a2.743,2.743,0,0,1,.755.6,1.351,1.351,0,0,1,.238.238Zm.894-1.848a1.769,1.769,0,0,0-.278.974,7.352,7.352,0,0,0,0,1.709,5.843,5.843,0,0,0,.258,1.212,1.868,1.868,0,0,0,.258.636h0a1.789,1.789,0,0,0,.258-.934,9.621,9.621,0,0,0,0-1.709,5.764,5.764,0,0,0-.2-1.153,1.352,1.352,0,0,0-.338-.656h-.119a.135.135,0,0,0,.159-.219Z" transform="translate(41.594 39.576)" fill="#e1e1e1"/>
        <path id="Path_363" data-name="Path 363" d="M42.64,46.09a20.989,20.989,0,0,1,.3-2.743,1.53,1.53,0,0,1,.477-.954.417.417,0,0,1,.358-.1.556.556,0,0,1,.318.238,3.417,3.417,0,0,1,.318.616l.417,1.252c.179.616.338,1.153.457,1.63a5.486,5.486,0,0,1,.2.815,1.809,1.809,0,0,1-.159.616,1.232,1.232,0,0,1-.3.557h-.437a1.093,1.093,0,0,1-.378-.258,6.32,6.32,0,0,1-.258-1.073c-.139-.676-.3-1.332-.477-1.987a11.926,11.926,0,0,0-.318,1.987,2.862,2.862,0,0,0,.159,1.272.934.934,0,0,1,0,.735,1.511,1.511,0,0,1-.358.616.278.278,0,0,1-.278,0,.437.437,0,0,1-.278-.159A5.606,5.606,0,0,1,42,48.1a4.531,4.531,0,0,0-.616-1.351,1.252,1.252,0,0,0-.556-.477c-.2-.1-.358-.1-.457,0a.616.616,0,0,0-.219.457,1.57,1.57,0,0,0,0,.735,3.2,3.2,0,0,1,.715.556,5.167,5.167,0,0,1,.755.855,1.51,1.51,0,0,1,.338,1.033,1.033,1.033,0,0,1-.4.775H41.03a2.206,2.206,0,0,1-.656-.636l-.358-.477a3.975,3.975,0,0,1-.576-.954.676.676,0,0,1,0-.556,4.929,4.929,0,0,1,0-1.987,1.987,1.987,0,0,1,.715-1.212.974.974,0,0,1,.457-.219,1.729,1.729,0,0,1,.616,0,1.033,1.033,0,0,1,.4.159,1.312,1.312,0,0,1,.358.378l.119.159a4.258,4.258,0,0,1,.258.378Z" transform="translate(38.862 41.756)" fill="#e1e1e1"/>
        <path id="Path_364" data-name="Path 364" d="M38.892,50.476a11.925,11.925,0,0,0,.2-2.226,10.8,10.8,0,0,1,0-1.153l.3-.338a1.67,1.67,0,0,1,.378-.258.477.477,0,0,1,.517,0,2.464,2.464,0,0,1,.6.855c.417.815.755,1.51,1.014,1.987a4.531,4.531,0,0,1,.378,1.073,1.391,1.391,0,0,1-.238.755,2.126,2.126,0,0,1-.477.6.4.4,0,0,1-.338,0,.5.5,0,0,1-.278-.258s0,0,0-.119a.5.5,0,0,1,0-.159c-.139-.437-.3-.874-.457-1.292s-.378-.835-.576-1.232l-.258-.219a16.319,16.319,0,0,1-.179,2.246,7.811,7.811,0,0,1-.338,1.55,1.232,1.232,0,0,1-.3.378,1.411,1.411,0,0,1-.417.338.477.477,0,0,1-.318,0,.278.278,0,0,1-.219-.139,4.631,4.631,0,0,1-.139-1.173V50.675c-.139-1.65-.258-2.9-.378-3.736a12.044,12.044,0,0,0-.4-1.987,1.988,1.988,0,0,0-.4,1.252c0,.5,0,.775,0,.815h-.159a.4.4,0,0,1-.159-.159,2.167,2.167,0,0,1,0-.795,3.6,3.6,0,0,1,.119-1.133A3.419,3.419,0,0,1,36.745,44a1.57,1.57,0,0,1,.417-.517.836.836,0,0,1,.537.159,1.769,1.769,0,0,1,.537.656,8.506,8.506,0,0,1,.417,1.987A24.237,24.237,0,0,0,38.892,50.476Z" transform="translate(35.773 42.935)" fill="#e1e1e1"/>
        <path id="Path_365" data-name="Path 365" d="M36.215,47.821a1.133,1.133,0,0,0-.537-.258,1.173,1.173,0,0,0-.576,0,1.471,1.471,0,0,0-.656.477c-.2.238-.3.358-.338.358a.238.238,0,0,1-.2,0,.318.318,0,0,1-.139-.139,1.015,1.015,0,0,1,.437-.874,2.464,2.464,0,0,1,1.014-.775,3.7,3.7,0,0,1,.8-.179,6.122,6.122,0,0,0,.874-.219.735.735,0,0,1,.755.159,1.689,1.689,0,0,1,.6.894,3.2,3.2,0,0,1,.119,1.312,4.909,4.909,0,0,1-.338,1.55,5.128,5.128,0,0,1-.835,1.471,2.425,2.425,0,0,1-.894.815.716.716,0,0,1-.636,0,1.411,1.411,0,0,1-.477-.656,1.689,1.689,0,0,1,0-.715h0v-.378a1.372,1.372,0,0,1,0-.358,3.26,3.26,0,0,1,.318-1.312A4.213,4.213,0,0,1,36.215,47.821Zm.378.5a3.856,3.856,0,0,0-.676,1.451,2.107,2.107,0,0,0,0,1.272.457.457,0,0,0,.139.219.159.159,0,0,0,.159,0c.3,0,.477-.457.576-1.053a4.074,4.074,0,0,0-.139-1.848Z" transform="translate(33.362 45.589)" fill="#e1e1e1"/>
        <path id="Path_366" data-name="Path 366" d="M32.725,50.521a5.306,5.306,0,0,0,.517-1.471,6.239,6.239,0,0,1,.238-.974,1.828,1.828,0,0,1,.437-.6A1.212,1.212,0,0,1,34.534,47a.8.8,0,0,1,.616.179c.239.159.378.318.4.457a.4.4,0,0,1-.159.4,1.411,1.411,0,0,0-.258.378,1.987,1.987,0,0,0-.119.755,5.108,5.108,0,0,0,.179,1.133.457.457,0,0,0,0,.238.258.258,0,0,0,.219,0h.358a.278.278,0,0,1,.159.179.576.576,0,0,1-.2.5,1.093,1.093,0,0,1-.6.4,1.033,1.033,0,0,0-.417.258l-.278.2a.338.338,0,0,1-.318-.119A1.689,1.689,0,0,1,33.9,51.4a3.2,3.2,0,0,1,0-.835c0-.318,0-.795,0-1.391l-.1.4a9.658,9.658,0,0,1-.5,1.471l.159.3a.473.473,0,0,0,.1.338,2.186,2.186,0,0,1,0,.7.874.874,0,0,1-.179.5,6.618,6.618,0,0,1-.477.517,1.272,1.272,0,0,1-.258.219.481.481,0,0,1-.457-.258,1.351,1.351,0,0,1-.318-.5,2.246,2.246,0,0,1,.1-.417,1.53,1.53,0,0,0,0-.656.537.537,0,0,0-.238-.3.676.676,0,0,1-.278-.417,1.292,1.292,0,0,1,0-.219.517.517,0,0,1,0-.159,1.193,1.193,0,0,1,.338-.258.974.974,0,0,1,.378-.219.417.417,0,0,1,.258,0,.715.715,0,0,1,.3.318Z" transform="translate(31.068 46.407)" fill="#e1e1e1"/>
        <path id="Path_367" data-name="Path 367" d="M30.5,52.188a.815.815,0,0,0,0-.159.5.5,0,0,0,0-.159,3.2,3.2,0,0,0-.6-.855,2.624,2.624,0,0,1-.616-1.192,1.729,1.729,0,0,1,.616-1.451,2.862,2.862,0,0,1,1.749-.855,2.365,2.365,0,0,1,1.014,0c.258.1.417.238.437.457a1.272,1.272,0,0,1-.3.795c-.238.318-.437.477-.6.5s-.4-.119-.616-.4-.4-.437-.537-.417a.179.179,0,0,0-.159.1.318.318,0,0,0,0,.2,2.305,2.305,0,0,0,.676,1.391,2.087,2.087,0,0,1,.6.914.934.934,0,0,1,0,.457,1.987,1.987,0,0,1-.318.517,5.029,5.029,0,0,1-.954.994,2.286,2.286,0,0,1-.795.457.815.815,0,0,1-.417,0,.4.4,0,0,1-.238-.278,2.186,2.186,0,0,1,0-.835.417.417,0,0,1,.378-.318.736.736,0,0,1,.358,0,.556.556,0,0,1,.318.139Z" transform="translate(28.936 46.867)" fill="#e1e1e1"/>
        <path id="Path_368" data-name="Path 368" d="M41.79,56.586V52.094H40.2V51.18h4.293v.914h-1.61v4.492Z" transform="translate(39.712 50.538)" fill="#e1e1e1"/>
        <path id="Path_369" data-name="Path 369" d="M42.69,56.616V51.21h1.65l.954,3.617.974-3.677H47.9v5.466H46.884V52.362L45.81,56.616H44.757l-1.073-4.253v4.253Z" transform="translate(42.17 50.509)" fill="#e1e1e1"/>
        <path id="Path_370" data-name="Path 370" d="M14.734,42.89a6.618,6.618,0,0,0-.1,4.949A6.36,6.36,0,0,0,18.609,50.6a10.076,10.076,0,0,0-.636-5.028,6.578,6.578,0,0,0-3.24-2.683Z" transform="translate(14.04 42.352)" fill="#e1e1e1"/>
        <path id="Path_371" data-name="Path 371" d="M18.045,44.65a6.718,6.718,0,0,0-.119,4.949A6.38,6.38,0,0,0,21.9,52.361a10.1,10.1,0,0,0-.576-5.028,6.539,6.539,0,0,0-3.279-2.683Z" transform="translate(17.307 44.09)" fill="#e1e1e1"/>
        <path id="Path_372" data-name="Path 372" d="M18.239,47.95a9.639,9.639,0,0,0-4.849,1.689,8.526,8.526,0,0,0,5.386,2.584h0a6.36,6.36,0,0,0,4.551-2.305,9.7,9.7,0,0,0-4.969-1.987Z" transform="translate(13.238 47.329)" fill="#e1e1e1"/>
        <path id="Path_373" data-name="Path 373" d="M14.537,45.522a6.2,6.2,0,0,0-1.073,0A10.434,10.434,0,0,0,9.31,46.5a8.447,8.447,0,0,0,4.949,3.359,5.346,5.346,0,0,0,.795,0,6.757,6.757,0,0,0,4.114-1.65,9.679,9.679,0,0,0-4.631-2.683Z" transform="translate(9.209 44.928)" fill="#e1e1e1"/>
        <path id="Path_374" data-name="Path 374" d="M12.1,40.4a6.5,6.5,0,0,0-.775,4.889,6.28,6.28,0,0,0,3.6,3.3,10.275,10.275,0,0,0,0-5.068A6.757,6.757,0,0,0,12.1,40.4Z" transform="translate(11.027 39.893)" fill="#e1e1e1"/>
        <path id="Path_375" data-name="Path 375" d="M11.453,45.946A10.255,10.255,0,0,0,12.486,41,6.837,6.837,0,0,0,10.24,37.38a6.718,6.718,0,0,0-1.709,4.651,6.32,6.32,0,0,0,2.922,3.915Z" transform="translate(8.438 36.911)" fill="#e1e1e1"/>
        <path id="Path_376" data-name="Path 376" d="M10.374,38.1A6.857,6.857,0,0,0,9.1,34.13,6.539,6.539,0,0,0,6.3,38.1a6.4,6.4,0,0,0,1.868,4.531A10.275,10.275,0,0,0,10.374,38.1Z" transform="translate(6.237 33.702)" fill="#e1e1e1"/>
        <path id="Path_377" data-name="Path 377" d="M11.127,42.558a6.578,6.578,0,0,0-1.987-.3,11.627,11.627,0,0,0-3.3.537,8.606,8.606,0,0,0,4.472,3.975,5.645,5.645,0,0,0,1.431.2A7.175,7.175,0,0,0,15.4,45.818,9.56,9.56,0,0,0,11.127,42.558Z" transform="translate(5.782 41.73)" fill="#e1e1e1"/>
        <path id="Path_378" data-name="Path 378" d="M11.388,43.856a9.381,9.381,0,0,0-3.061-4.392A9.46,9.46,0,0,0,3.18,38.112,8.467,8.467,0,0,0,6.261,43.24a5.505,5.505,0,0,0,3.1.874,8.129,8.129,0,0,0,2.027-.258Z" transform="translate(3.156 37.63)" fill="#e1e1e1"/>
        <path id="Path_379" data-name="Path 379" d="M8.564,40.637a9.52,9.52,0,0,0-2.385-4.79A9.52,9.52,0,0,0,1.27,33.86a8.685,8.685,0,0,0,2.305,5.525A5.962,5.962,0,0,0,7.55,40.776Z" transform="translate(1.27 33.435)" fill="#e1e1e1"/>
        <path id="Path_380" data-name="Path 380" d="M8.92,34.734a7.036,7.036,0,0,0-.676-4.194,6.519,6.519,0,0,0-3.359,3.617,6.42,6.42,0,0,0,1.173,4.75A10.176,10.176,0,0,0,8.92,34.734Z" transform="translate(4.77 30.157)" fill="#e1e1e1"/>
        <path id="Path_381" data-name="Path 381" d="M8.16,31.1a6.9,6.9,0,0,0,0-4.233,6.579,6.579,0,0,0-3.975,2.941,6.36,6.36,0,0,0,.238,4.869A10.116,10.116,0,0,0,8.16,31.1Z" transform="translate(3.78 26.533)" fill="#e1e1e1"/>
        <path id="Path_382" data-name="Path 382" d="M3.632,29.857a10.037,10.037,0,0,0,4.194-2.882A6.8,6.8,0,0,0,8.78,23a6.638,6.638,0,0,0-4.492,1.987,6.26,6.26,0,0,0-.656,4.869Z" transform="translate(3.379 22.712)" fill="#e1e1e1"/>
        <path id="Path_383" data-name="Path 383" d="M6.7,36.921a9.48,9.48,0,0,0-1.729-5.048A9.52,9.52,0,0,0,.4,29.13a8.606,8.606,0,0,0,1.53,5.7A6.36,6.36,0,0,0,6.7,36.921Z" transform="translate(0.374 28.765)" fill="#e1e1e1"/>
        <path id="Path_384" data-name="Path 384" d="M5.294,32.885a9.58,9.58,0,0,0-.934-5.267,9.281,9.281,0,0,0-4.094-3.4A8.486,8.486,0,0,0,.9,30.182a6.539,6.539,0,0,0,4.392,2.7Z" transform="translate(0.008 23.916)" fill="#e1e1e1"/>
        <path id="Path_385" data-name="Path 385" d="M4.639,28.58a9.4,9.4,0,0,0,0-5.346A9.679,9.679,0,0,0,1.4,19.12a8.546,8.546,0,0,0-.477,5.962,6.36,6.36,0,0,0,3.717,3.5Z" transform="translate(0.603 18.88)" fill="#e1e1e1"/>
        <path id="Path_386" data-name="Path 386" d="M10.985,19.58A8.467,8.467,0,0,0,9,19.322a5.068,5.068,0,0,0-2.862.755A6.141,6.141,0,0,0,3.85,24.39a10.176,10.176,0,0,0,4.929-1.232,6.28,6.28,0,0,0,2.206-3.577Z" transform="translate(3.817 19.076)" fill="#e1e1e1"/>
        <path id="Path_387" data-name="Path 387" d="M9.869,15.581A4.452,4.452,0,0,0,7.882,16,6.28,6.28,0,0,0,5,19.973a13.754,13.754,0,0,0,1.769.119,7.731,7.731,0,0,0,3.279-.6,6.32,6.32,0,0,0,2.9-3.259,7.791,7.791,0,0,0-3.081-.656Z" transform="translate(4.953 15.384)" fill="#e1e1e1"/>
        <path id="Path_388" data-name="Path 388" d="M11.66,12.11a4.154,4.154,0,0,0-1.57.3,5.962,5.962,0,0,0-3.16,3.7,13.077,13.077,0,0,0,2.623.278,6.439,6.439,0,0,0,2.445-.4A6.241,6.241,0,0,0,14.979,13,7.95,7.95,0,0,0,11.66,12.11Z" transform="translate(6.859 11.958)" fill="#e1e1e1"/>
        <path id="Path_389" data-name="Path 389" d="M4.712,24.447A10.1,10.1,0,0,0,6.064,19.28a9.937,9.937,0,0,0-2.286-4.83,8.645,8.645,0,0,0-1.987,5.664,6.678,6.678,0,0,0,2.922,4.333Z" transform="translate(1.783 14.269)" fill="#e1e1e1"/>
        <path id="Path_390" data-name="Path 390" d="M8.214,15.267A9.639,9.639,0,0,0,6.9,10.1,8.645,8.645,0,0,0,4,15.267,6.638,6.638,0,0,0,5.988,20.1,9.937,9.937,0,0,0,8.214,15.267Z" transform="translate(3.965 9.973)" fill="#e1e1e1"/>
        <path id="Path_391" data-name="Path 391" d="M11.282,11.317a9,9,0,0,0-.5-5.247A8.546,8.546,0,0,0,7.049,10.7a6.459,6.459,0,0,0,1.232,5.048,9.3,9.3,0,0,0,3-4.432Z" transform="translate(6.879 5.994)" fill="#e1e1e1"/>
        <path id="Path_392" data-name="Path 392" d="M17.986,10.919A6.956,6.956,0,0,0,13.892,9.23h-.556A6.1,6.1,0,0,0,9.46,12.152,10.275,10.275,0,0,0,13.554,13.2a3.975,3.975,0,0,0,.855,0,5.962,5.962,0,0,0,3.577-2.286Z" transform="translate(9.357 9.114)" fill="#e1e1e1"/>
        <path id="Path_393" data-name="Path 393" d="M16.673,6.73A6.38,6.38,0,0,0,12.36,9.035a9.7,9.7,0,0,0,4.75,1.749,6.4,6.4,0,0,0,3.975-1.669A6.7,6.7,0,0,0,16.673,6.73Z" transform="translate(12.221 6.646)" fill="#e1e1e1"/>
        <path id="Path_394" data-name="Path 394" d="M20.3,4.87h-.358A6.459,6.459,0,0,0,15.83,6.857,9.937,9.937,0,0,0,20.4,9.024h.278a7.1,7.1,0,0,0,3.756-1.351A6.479,6.479,0,0,0,20.3,4.87Z" transform="translate(15.647 4.809)" fill="#e1e1e1"/>
        <path id="Path_395" data-name="Path 395" d="M14.781,8.417A9.182,9.182,0,0,0,15.2,3.15a8.228,8.228,0,0,0-4.492,3.975,6.3,6.3,0,0,0,.338,5.148,9.341,9.341,0,0,0,3.736-3.856Z" transform="translate(10.197 3.111)" fill="#e1e1e1"/>
        <path id="Path_396" data-name="Path 396" d="M18.753,6.208A9.7,9.7,0,0,0,20.3,1.1,8.546,8.546,0,0,0,15.056,4a6.32,6.32,0,0,0-.795,5.108,9.739,9.739,0,0,0,4.492-2.9Z" transform="translate(13.877 1.086)" fill="#e1e1e1"/>
        <path id="Path_397" data-name="Path 397" d="M40.734,4.564c.835,0,1.689-.159,2.524-.2h4.313c1.451,0,2.862,0,4.313-.119h0a21.445,21.445,0,0,0-4.333-.6,26.87,26.87,0,0,0-4.372.219q-1.093.119-2.206.3a1.23,1.23,0,0,1,.139-.378,31.363,31.363,0,0,0-3.339-.636c.735-.239,1.491-.457,2.246-.656,1.113-.258,2.246-.457,3.339-.735S45.583,1.2,46.7.867h0a14.707,14.707,0,0,0-3.5.179,21.485,21.485,0,0,0-3.359.914A33.627,33.627,0,0,0,36.6,3.153a7.1,7.1,0,0,0-2.4.318,2.8,2.8,0,0,0-1.65,2.981,47.9,47.9,0,0,0-3.478,87.091h0l1.113.5.6.3h0l3.081,1.471a39.193,39.193,0,0,0,5.525,2.286,28.321,28.321,0,0,0,10.891.437c.6,0-.656-.775-1.312-1.033a16.615,16.615,0,0,0-4.432.219,22.319,22.319,0,0,1-5.207-.477A46.068,46.068,0,0,1,31.929,94l-.874-.378A47.1,47.1,0,0,1,33.3,7.128a8.626,8.626,0,0,0,2.723.457,5.962,5.962,0,0,0,2.127-.457,5.306,5.306,0,0,0,1.093-.656h2.941c.954,0,2.127.179,3.18.219s2.127,0,3.24,0h0a13.356,13.356,0,0,0-3.16-.775,17.887,17.887,0,0,0-3.259,0,12.334,12.334,0,0,0-2.425.159,5.8,5.8,0,0,0,.974-1.51Z" transform="translate(2.748 0.822)" fill="#e1e1e1"/>
        <path id="Path_398" data-name="Path 398" d="M17.272,20.593h16.3A1.332,1.332,0,0,0,34.9,19.261V17.91H16v1.351A1.332,1.332,0,0,0,17.272,20.593Z" transform="translate(15.815 17.685)" fill="#e1e1e1"/>
        <path id="Path_399" data-name="Path 399" d="M29.992,20.593h16.3a1.332,1.332,0,0,0,1.332-1.332V17.91H28.66v1.351A1.332,1.332,0,0,0,29.992,20.593Z" transform="translate(28.316 17.685)" fill="#e1e1e1"/>
        <path id="Path_400" data-name="Path 400" d="M33.569,34.341h-16.3A1.332,1.332,0,0,0,16,35.652V37H34.96V35.652a1.332,1.332,0,0,0-1.391-1.312Z" transform="translate(15.815 33.909)" fill="#e1e1e1"/>
        <path id="Path_401" data-name="Path 401" d="M46.289,34.34h-16.3a1.332,1.332,0,0,0-1.332,1.332v1.351H47.62V35.652a1.332,1.332,0,0,0-1.332-1.312Z" transform="translate(28.316 33.909)" fill="#e1e1e1"/>
        <path id="Path_402" data-name="Path 402" d="M74.39,37.807l-5.724-7.234c.119,0,.2-.159.2-.258s-.238-.358-.576-.437v-.7h.3v-.556a2.087,2.087,0,0,0-1.391,0v.556H58.927V22.563h1.789a1.332,1.332,0,0,0,1.332-1.332V19.9H49.169v1.332A1.332,1.332,0,0,0,50.5,22.563h1.789v6.658H33.707V22.563H35.5a1.332,1.332,0,0,0,1.332-1.332V19.9H23.948v1.332a1.332,1.332,0,0,0,1.332,1.332h1.789v6.658H18.88v-.556a2.087,2.087,0,0,0-1.391,0v.556h.3v.7a.541.541,0,0,0-.576.437c0,.2,0,.179.2.258l-5.8,7.254c-.417.119-.636.238-.636.358h0a3.22,3.22,0,0,0,1.769,1.212,17.211,17.211,0,0,0,5.724.855,13.117,13.117,0,0,0,4.194-.6,6.36,6.36,0,0,0,2.723-1.351s0-.119,0-.139a1.335,1.335,0,0,0-.656-.378l-4.77-5.962h7.075V44.7H25.24a1.332,1.332,0,0,0-1.332,1.332v1.351H36.867V46.035A1.332,1.332,0,0,0,35.535,44.7H33.746V36.436H52.329v8.288H50.54a1.332,1.332,0,0,0-1.332,1.332v1.351H62.088V46.055a1.332,1.332,0,0,0-1.332-1.332H58.967V31.884h7.055l-4.75,5.962c-.4.119-.636.238-.636.358h0a3.22,3.22,0,0,0,1.769,1.212,17.251,17.251,0,0,0,5.744.855,13.078,13.078,0,0,0,4.174-.6,6.221,6.221,0,0,0,2.723-1.351v-.139A2.211,2.211,0,0,0,74.39,37.807Zm-56.6-.517a45.055,45.055,0,0,0-4.989.3l4.989-6.2Zm5.764.3a44.637,44.637,0,0,0-4.969-.3V31.884h.4Zm28.739-3.836H33.707V31.884H52.289ZM67.414,37.29a44.318,44.318,0,0,0-4.969.3l4.571-5.7h.4Zm.795,0V31.328l4.969,6.2a44.636,44.636,0,0,0-4.969-.238Z" transform="translate(10.848 19.651)" fill="#e1e1e1"/>
      </g>
    </g>
  </g>
</svg>
