<svg xmlns="http://www.w3.org/2000/svg" width="307.474" height="287.053" viewBox="0 0 307.474 287.053">
  <g id="Layer_2" data-name="Layer 2" transform="translate(0.008)">
    <g id="圖層_1" data-name="圖層 1" transform="translate(-0.008)">
      <path id="Path_406" data-name="Path 406" d="M57.8,4.831q-3.638,2.387-7.5,5.286c-2.5,1.989-5.059,4.149-7.73,6.48L39.04,19.723c-4.377,3.922-6.707,6.025-6.934,6.366h0a2.9,2.9,0,0,1-.739.739H28.013a.739.739,0,0,1-.4-.341.966.966,0,0,1,0-.568,3.865,3.865,0,0,1,.682-1.364,2.558,2.558,0,0,1,1.08-.8,27.68,27.68,0,0,0,4.206-3.183l2.1-1.933c7.673-6.366,13.7-11.368,18.075-14.266S60.979,0,61.889,0a1.25,1.25,0,0,1,.739.568,2.558,2.558,0,0,1,0,1.023c0,.682,0,1.25,0,1.819V4.32a40.184,40.184,0,0,1-2.9,5.115c-1.876,3.069-3.581,6.082-5.059,9.037,3.751-3.183,6.707-5.684,8.924-7.162a24.952,24.952,0,0,1,5.684-3.24,6.537,6.537,0,0,1,1.762-.909,1.932,1.932,0,0,1,1.25,0,1.364,1.364,0,0,1,1.023,1.023,4.547,4.547,0,0,1,0,2.274,29.727,29.727,0,0,1-3.524,5.911l-1.535,2.387-1.819,3.126a9.148,9.148,0,0,0-.682,1.591,1.875,1.875,0,0,0,0,.8.625.625,0,0,0,.512.4,1.622,1.622,0,0,0,1.25-.455c.512-.455.909-.568,1.137-.512a.853.853,0,0,1,.512.341.91.91,0,0,1,0,.568,2.729,2.729,0,0,1-.568.853,8.185,8.185,0,0,1-1.25,1.08,5.684,5.684,0,0,1-2.33,1.023,5.286,5.286,0,0,1-2.046.284H60.979a1.421,1.421,0,0,1-1.023-1.08,4.149,4.149,0,0,1,0-2.33,53.6,53.6,0,0,1,6.025-9.492l2.785-3.922a83.039,83.039,0,0,0-9.151,6.934l-5.059,4.092a9.435,9.435,0,0,1-2.387,1.478,3.3,3.3,0,0,1-1.876,0,2.387,2.387,0,0,1-1.137-.966,1.762,1.762,0,0,1-.455-1.421l2.956-6.139c.8-1.648,1.705-3.3,2.671-4.945S56.546,6.593,57.8,4.831Z" transform="translate(129.189)" fill="#231815"/>
      <path id="Path_407" data-name="Path 407" d="M47.106,12.552a43.817,43.817,0,0,1-4.433,2.387,8.98,8.98,0,0,1-2.842.909H37.955a4.263,4.263,0,0,1-1.762,0,2.217,2.217,0,0,1-.909-1.478,2.5,2.5,0,0,1,0-1.705,13.018,13.018,0,0,1,1.08-1.478c.625-.8,1.307-1.648,2.046-2.444s2.5-2.615,3.467-3.467a8.3,8.3,0,0,1,2.217-1.591,2.1,2.1,0,0,1,.853,0h.909a2.9,2.9,0,0,1,1.989,0c.341,0,.512.625.568,1.307a3.012,3.012,0,0,1,0,1.421A14.438,14.438,0,0,1,46.2,8.459h-.341l-1.933,1.591a11.709,11.709,0,0,0-2.387,2.217.739.739,0,0,0,0,.455c.512.284,2.274-.568,5.172-2.444l3.865-2.444a3.41,3.41,0,0,1,1.591-.4,6.479,6.479,0,0,1,1.421,0A1.023,1.023,0,0,1,54.1,8.459a3.24,3.24,0,0,1-.455,1.762,23.7,23.7,0,0,1-2.274,3.24,16.652,16.652,0,0,0-2.16,3.012,5.684,5.684,0,0,0-.4,1.194,3.581,3.581,0,0,1,0,.853c0,.455-.853.8-1.933,1.023a3.41,3.41,0,0,1-2.274,0c-.341,0-.568-.512-.682-1.08a1.705,1.705,0,0,1,0-1.307s.682-1.137,1.933-2.9A20.44,20.44,0,0,1,47.106,12.552Z" transform="translate(164.604 16.436)" fill="#231815"/>
      <path id="Path_408" data-name="Path 408" d="M51.177,8.044h-.512v.341a7.844,7.844,0,0,0-.284,2.9,7.787,7.787,0,0,1-.853,3.751,5.115,5.115,0,0,1-4.092,2.046,8.128,8.128,0,0,1-5.343-1.364,6.877,6.877,0,0,1-2.16-2.046,1.592,1.592,0,0,1,0-1.705A3.3,3.3,0,0,1,39.469,11a2.842,2.842,0,0,1,2.217,0c.455,0,.625.966.568,1.989s0,1.705.455,1.932a.455.455,0,0,0,.455,0,1.023,1.023,0,0,0,.739-.284,7.275,7.275,0,0,0,1.25-4.32,6.764,6.764,0,0,1,0-3.126,2.842,2.842,0,0,1,.966-.853,3.979,3.979,0,0,1,1.648-.568,19.154,19.154,0,0,1,3.922-.4,5.684,5.684,0,0,1,2.558.512,1.705,1.705,0,0,1,.8.966,1.08,1.08,0,0,1,0,1.023,6.707,6.707,0,0,1-1.591,1.819,1.194,1.194,0,0,1-1.421,0,2.1,2.1,0,0,1-.568-.739,1.876,1.876,0,0,1-.284-.909Z" transform="translate(176.561 25.149)" fill="#231815"/>
      <path id="Path_409" data-name="Path 409" d="M45.686,10.506h0a3.014,3.014,0,0,1-.625-.625.455.455,0,0,1,0-.455,3.084,3.084,0,0,0,1.25-.341,24.27,24.27,0,0,1,2.785,0l5.684-2.444a3.126,3.126,0,0,1,1.705-.284H58.02A3.353,3.353,0,0,1,59.1,6.7a.682.682,0,0,1,.341.568,1.421,1.421,0,0,1,0,.8V8.4h0a8.014,8.014,0,0,1-2.1.966,22.735,22.735,0,0,0-3.751,1.762l.853.8c.739.739,1.023,1.25.739,1.535a2.541,2.541,0,0,1-1.307.625h-.909a1.478,1.478,0,0,1-1.478-.341l-.512-.4-.909-.8a19.9,19.9,0,0,0-2.217,1.137,6.252,6.252,0,0,0-2.16,2.1,1.819,1.819,0,0,0-.512,1.25,1.762,1.762,0,0,0,.682,1.08,4.774,4.774,0,0,0,1.705.853,5,5,0,0,1,1.25.512.682.682,0,0,1,.341.568.8.8,0,0,1,0,.625c-.341.455-1.421.512-3.126.341a8.469,8.469,0,0,1-4.49-1.932A3.24,3.24,0,0,1,40,16.417a4.49,4.49,0,0,1,.966-2.956,8.355,8.355,0,0,1,2.1-1.421Z" transform="translate(187.395 29.678)" fill="#231815"/>
      <path id="Path_410" data-name="Path 410" d="M52.332,17.146a17.051,17.051,0,0,1-3.524,0,10.117,10.117,0,0,1-2.9-.909,26.148,26.148,0,0,1-2.5-1.421,8.354,8.354,0,0,1-1.364-.909,1.591,1.591,0,0,1-.4-1.535,3.354,3.354,0,0,1,1.023-1.705A3.922,3.922,0,0,1,43.92,9.7a23.475,23.475,0,0,1,2.842-.682,16.085,16.085,0,0,1,4.376-.284,23.473,23.473,0,0,1,4.945.8,17.847,17.847,0,0,1,3.353,1.194A8.7,8.7,0,0,1,61.654,12.2a5.684,5.684,0,0,1,1.421,2.33v1.819l-1.648.909-2.671,1.535c-1.591.909-2.956,1.705-4.036,2.444a16.2,16.2,0,0,0-1.989,1.307,2.046,2.046,0,0,0-.455.682,1.592,1.592,0,0,1,0,.568,1.194,1.194,0,0,1-.853,0,1.933,1.933,0,0,1-.966-.455,1.649,1.649,0,0,1-.341-.568,2.045,2.045,0,0,0,0-.512h-.341a1.194,1.194,0,0,1,0-1.364,8.3,8.3,0,0,1,1.762-2.16l.739-.625ZM47.16,14.418a4.718,4.718,0,0,0,2.785.909,19.78,19.78,0,0,0,4.831,0,24.1,24.1,0,0,0,3.524-.568,4.377,4.377,0,0,0,1.819-.739h0a5.684,5.684,0,0,0-2.615-.853,26.6,26.6,0,0,0-4.888,0,17.051,17.051,0,0,0-3.3.4,5,5,0,0,0-1.989.909v.341s-.227-.512-.17-.4Z" transform="translate(194.845 40.715)" fill="#231815"/>
      <path id="Path_411" data-name="Path 411" d="M55.143,19.692a15.233,15.233,0,0,0-4.433.284l-2.842.455a7.1,7.1,0,0,1-2.046-.455,3.922,3.922,0,0,1-1.648-.966,2.1,2.1,0,0,1-.057-1.648,2.785,2.785,0,0,1,.8-1.591,1.535,1.535,0,0,1,1.25,0,4.661,4.661,0,0,0,1.25.284,5.684,5.684,0,0,0,2.16-.568,13.641,13.641,0,0,0,2.785-1.648s.455-.4.455-.512a.739.739,0,0,0,0-.625,1.535,1.535,0,0,1-.739-1.023.512.512,0,0,1,.284-.625,1.591,1.591,0,0,1,1.535,0A3.467,3.467,0,0,1,55.6,12.189a3.012,3.012,0,0,0,1.137.853,2.273,2.273,0,0,1,.8.512.853.853,0,0,1,0,.966,5.684,5.684,0,0,1-1.194,1.194,22.227,22.227,0,0,1-2.1,1.137c-.853.455-2.1.909-3.694,1.535h1.137a20.689,20.689,0,0,1,4.433-.284l.625-.739.8-.625a6.082,6.082,0,0,1,1.762-.966,2.671,2.671,0,0,1,1.478,0l1.933.682a.986.986,0,0,1,.853.455,11.748,11.748,0,0,1,0,1.478,3.524,3.524,0,0,1-.966,1.364h-1.25a3.353,3.353,0,0,0-1.705.625,1.478,1.478,0,0,0-.568.966,1.819,1.819,0,0,1-.8,1.194h-1.08a3.865,3.865,0,0,1-1.137-.568,6.253,6.253,0,0,1-.966-.8,1.307,1.307,0,0,1,0-.739,1.99,1.99,0,0,1,.057-.739Z" transform="translate(206.016 50.844)" fill="#231815"/>
      <path id="Path_412" data-name="Path 412" d="M62.482,23.755a25.35,25.35,0,0,0,2.842-4.036,9.434,9.434,0,0,0,1.194-3.41,6.535,6.535,0,0,0,0-2.5c0-.966,0-1.478,0-1.648s.909,0,1.819.739a6.366,6.366,0,0,1,1.876,1.819,5.684,5.684,0,0,1,.512,2.615,11.822,11.822,0,0,1-.512,3.41,12.106,12.106,0,0,1-2.274,4.206,16.085,16.085,0,0,1-3.979,3.183,14.494,14.494,0,0,1-4.149,1.535,17.961,17.961,0,0,1-4.718.455,11.879,11.879,0,0,1-3.183-.8H51.4a13.186,13.186,0,0,1-3.353-1.648,7.275,7.275,0,0,1-1.989-2.046A3.24,3.24,0,0,1,45.6,22.9a3.751,3.751,0,0,1,1.876-2.1,10.174,10.174,0,0,1,2.387-.8,14.323,14.323,0,0,1,2.728-.512,12.846,12.846,0,0,1,4.661,1.137,24.668,24.668,0,0,1,5.229,3.126ZM61,25.005a20.348,20.348,0,0,0-5.968-1.25,9.265,9.265,0,0,0-4.433.682,1.933,1.933,0,0,0-.682.682.909.909,0,0,0,0,.853,3.979,3.979,0,0,0,3.638,1.705A9.662,9.662,0,0,0,58.9,26.37l.909-.625Z" transform="translate(213.057 56.671)" fill="#231815"/>
      <path id="Path_413" data-name="Path 413" d="M53.253,24.716a117.316,117.316,0,0,0,6.821,18.643c2.16,4.433,3.979,6.593,5.684,6.366s1.421-.853,1.648-2.16a15.744,15.744,0,0,0,0-5.684,6.127,6.127,0,0,0-.455-2.671,5.218,5.218,0,0,1-.4-2.046,19.894,19.894,0,0,1,0-3.467,5.683,5.683,0,0,1,.4-2.16,5.229,5.229,0,0,1,.682-.909,7.339,7.339,0,0,0,.739-.966,2.558,2.558,0,0,0,0-1.705,3.866,3.866,0,0,1,0-.682,1.819,1.819,0,0,1,.341-1.137,1.932,1.932,0,0,1,1.137-.512,5.684,5.684,0,0,1,3.126.682,16.54,16.54,0,0,1,3.694,2.785,34.957,34.957,0,0,1,4.149,5.172,54.909,54.909,0,0,1,3.808,6.821,30.807,30.807,0,0,1,1.648,4.092,17.961,17.961,0,0,1,.909,3.524,4.263,4.263,0,0,1,0,2.33A1.592,1.592,0,0,1,85.878,52a4.32,4.32,0,0,1-2.444-1.08l-1.364-.909-.909-.4q-1.08-.512-1.194-1.194a.682.682,0,0,1,0-.682,1.307,1.307,0,0,1,.682-.341h.512a.739.739,0,0,0,.512,0,1.023,1.023,0,0,0,0-.739,12.165,12.165,0,0,0-.512-1.876l-1.023-2.9c-.8-1.932-1.421-3.524-2.046-4.888a32.633,32.633,0,0,0-1.648-3.41,14.153,14.153,0,0,0-2.33-3.3,2.387,2.387,0,0,0-2.046-.909c-.625,0-1.023.512-1.194,1.25a10.856,10.856,0,0,0,0,3.524,6.9,6.9,0,0,0,.455,2.387,18.7,18.7,0,0,1,.682,3.581,31.431,31.431,0,0,1,.227,10.345,4.32,4.32,0,0,1-6.025,3.467,5.683,5.683,0,0,1-2.274-1.591l-.739-.853a45.468,45.468,0,0,0-3.467-3.694A17.96,17.96,0,0,1,56.095,42.9l-.284-.568a111.181,111.181,0,0,1-5.684-13.186,61.272,61.272,0,0,1-3.069-8.81,3.639,3.639,0,0,1,0-1.421.8.8,0,0,1,.625-.568c.4,0,1.137.4,2.046,1.421A6.706,6.706,0,0,0,51.6,21.419H52a3.24,3.24,0,0,1,1.478.682c1.08,1.023,1.989,1.933,2.671,2.728s1.08,1.307,1.08,1.591a.563.563,0,0,1-.341.8,5.1,5.1,0,0,1-2.1-1.25Z" transform="translate(220.126 85.948)" fill="#231815"/>
      <path id="Path_414" data-name="Path 414" d="M52.776,31.2a2.728,2.728,0,0,0-1.25,1.137,3.126,3.126,0,0,0-.455,1.648,4.945,4.945,0,0,0,.568,2.217,4.262,4.262,0,0,1,.625,1.307.8.8,0,0,1-.739.739c-.568,0-1.194-.739-1.819-2.1a7.673,7.673,0,0,1-.966-3.524,15.8,15.8,0,0,1,.4-2.274,14.266,14.266,0,0,0,.341-2.615,2.331,2.331,0,0,1,1.194-1.819,6.139,6.139,0,0,1,3.069-.625,9.151,9.151,0,0,1,3.581,1.137,15.972,15.972,0,0,1,3.751,2.5,16.711,16.711,0,0,1,3.069,3.865,6.878,6.878,0,0,1,1.137,3.24,1.819,1.819,0,0,1-.853,1.591,3.808,3.808,0,0,1-2.217.568,5,5,0,0,1-1.989-.568H59.2l-1.023-.341a8.3,8.3,0,0,1-3.126-2.274A10.743,10.743,0,0,1,52.776,31.2Zm1.705-.455A11.766,11.766,0,0,0,57.607,34.1a6.707,6.707,0,0,0,3.41,1.364,1.193,1.193,0,0,0,.568-.4v-.4a4.5,4.5,0,0,0-2.217-2.615,11.367,11.367,0,0,0-4.888-1.307Z" transform="translate(228.334 118.398)" fill="#231815"/>
      <path id="Path_415" data-name="Path 415" d="M52.709,33.869a3.126,3.126,0,0,0-1.364,1.023,3.751,3.751,0,0,0-.682,1.535A4.661,4.661,0,0,0,51,38.7a6.309,6.309,0,0,1,.455,1.364.625.625,0,0,1-.284.512h-.512c-.512,0-1.08-.853-1.591-2.274a7.275,7.275,0,0,1-.512-3.638,18.876,18.876,0,0,1,.625-2.217,25.75,25.75,0,0,0,.682-2.5,2.16,2.16,0,0,1,1.421-1.762,5.342,5.342,0,0,1,3.069,0,8.981,8.981,0,0,1,3.467,1.478,15.8,15.8,0,0,1,3.41,3.012,15.46,15.46,0,0,1,2.558,4.092,6.423,6.423,0,0,1,.739,3.41,1.705,1.705,0,0,1-1.023,1.478,3.638,3.638,0,0,1-2.274.284,4.49,4.49,0,0,1-1.876-.739h0l-1.023-.4a4.148,4.148,0,0,1-.966-.4,8.64,8.64,0,0,1-2.785-2.615,10.571,10.571,0,0,1-1.876-3.922Zm1.762,0a11.027,11.027,0,0,0,2.671,3.694,6.593,6.593,0,0,0,3.24,1.762,1.307,1.307,0,0,0,.682,0,.511.511,0,0,0,.341-.4c0-.853-.512-1.819-1.876-2.842A11.367,11.367,0,0,0,54.471,33.869Z" transform="translate(227.263 130.961)" fill="#231815"/>
      <path id="Path_416" data-name="Path 416" d="M61.057,43.485a25.574,25.574,0,0,0,4.831-.853,10.459,10.459,0,0,0,3.3-1.535,7.787,7.787,0,0,0,1.648-1.876c.512-.853.966-1.194,1.25-1.137s.568.682.8,1.819a6.593,6.593,0,0,1,0,2.615A5.684,5.684,0,0,1,71.4,44.736a9.094,9.094,0,0,1-2.785,2.046,11.708,11.708,0,0,1-4.547,1.364,14.608,14.608,0,0,1-5.115-.568,15.689,15.689,0,0,1-3.979-1.819,20.009,20.009,0,0,1-3.695-3.012A12.9,12.9,0,0,1,49.575,39.9v-.512a11.368,11.368,0,0,1-1.137-3.524,5.684,5.684,0,0,1,0-2.842,3.126,3.126,0,0,1,1.648-2.16,3.808,3.808,0,0,1,2.785,0A11.367,11.367,0,0,1,55.146,32,12.618,12.618,0,0,1,57.362,33.6a10.742,10.742,0,0,1,2.5,4.092,21.826,21.826,0,0,1,1.194,5.8Zm-1.933,0a17.449,17.449,0,0,0-3.353-5.059,8.753,8.753,0,0,0-3.581-2.671,1.364,1.364,0,0,0-.966,0,.8.8,0,0,0-.512.682,3.979,3.979,0,0,0,1.307,3.751,10.174,10.174,0,0,0,4.774,2.842l1.137.284Z" transform="translate(226.077 143.341)" fill="#231815"/>
      <path id="Path_417" data-name="Path 417" d="M58.146,46.42a17.68,17.68,0,0,1-.625,3.922,8.754,8.754,0,0,1-1.364,2.842,9.378,9.378,0,0,1-1.762,1.933,17.905,17.905,0,0,1-2.9,1.989l-.682.341a5.684,5.684,0,0,0-2.274,1.876H47.46a5.685,5.685,0,0,1-1.591-.8,3.013,3.013,0,0,1-1.137-1.535,1.648,1.648,0,0,1,0-1.648,12.105,12.105,0,0,1,3.183-1.989l2.273-1.25a18.642,18.642,0,0,0,2.671-1.876,10.742,10.742,0,0,0,2.046-2.274,8.469,8.469,0,0,0,1.364-3.126,8.241,8.241,0,0,0,0-3.524,17.56,17.56,0,0,0-.739-2.558c-.341-1.137-.455-1.876,0-2.16a.981.981,0,0,1,1.137-.4,66.1,66.1,0,0,1,5.684,11.368v.512l1.08,2.558a7.5,7.5,0,0,0,1.194,2.33h.8a2.387,2.387,0,0,1,.8.284,8.81,8.81,0,0,1,1.25,3.581c.284,1.478.568,2.728.853,3.694s0,.909.4,1.591a9.663,9.663,0,0,1,0,6.821H67.41a5.684,5.684,0,0,1-1.705-.682,5,5,0,0,1-1.137-1.421,11.709,11.709,0,0,1-.909-2.33c-1.137-4.6-2.217-8.412-3.126-11.368a62.526,62.526,0,0,0-2.387-6.707Z" transform="translate(208.527 169.224)" fill="#231815"/>
      <path id="Path_418" data-name="Path 418" d="M48.892,51a14.723,14.723,0,0,1,0-3.581,9.947,9.947,0,0,1,.8-2.9c.455-.909.853-1.762,1.307-2.558A8.868,8.868,0,0,1,51.9,40.54a1.535,1.535,0,0,1,1.535-.4,3.126,3.126,0,0,1,1.705.909A4.831,4.831,0,0,1,56,42.53a14.153,14.153,0,0,1,.8,2.785,16.143,16.143,0,0,1,.455,4.377,22.735,22.735,0,0,1-.625,4.945,15.006,15.006,0,0,1-1.08,3.41,8.355,8.355,0,0,1-1.364,2.33A6.252,6.252,0,0,1,51.9,61.855H50.085a18.25,18.25,0,0,1-.966-1.591c-.568-.966-1.137-1.819-1.648-2.615s-1.819-2.9-2.615-3.979-1.194-1.762-1.364-1.933a1.819,1.819,0,0,0-.739-.4l-.568-.284a1.194,1.194,0,0,1,0-.853,1.421,1.421,0,0,1,.455-.966,1.307,1.307,0,0,1,.512-.341l.512-.341a.853.853,0,0,0,0-.341h0q.4-.512,1.364,0a7.843,7.843,0,0,1,2.16,1.705,3.865,3.865,0,0,1,.682.682Zm2.558-5.286a5.059,5.059,0,0,0-.8,2.785,21.029,21.029,0,0,0,0,4.888,16.713,16.713,0,0,0,.739,3.467,5.343,5.343,0,0,0,.739,1.819h0A5.115,5.115,0,0,0,52.87,56a27.513,27.513,0,0,0,0-4.888,16.484,16.484,0,0,0-.568-3.3,3.865,3.865,0,0,0-.966-1.876h-.341a.387.387,0,1,0,.455-.625Z" transform="translate(197.262 187.721)" fill="#231815"/>
      <path id="Path_419" data-name="Path 419" d="M48.779,53.164a60.026,60.026,0,0,1,.853-7.844A4.377,4.377,0,0,1,51,42.592a1.193,1.193,0,0,1,1.023-.284,1.591,1.591,0,0,1,.909.682,9.775,9.775,0,0,1,.909,1.762l1.194,3.581c.512,1.762.966,3.3,1.307,4.661a15.688,15.688,0,0,1,.568,2.33,5.173,5.173,0,0,1-.455,1.762,3.524,3.524,0,0,1-.853,1.592H54.35a3.126,3.126,0,0,1-1.08-.739,18.077,18.077,0,0,1-.739-3.069c-.4-1.932-.853-3.808-1.364-5.684a34.108,34.108,0,0,0-.909,5.684,8.185,8.185,0,0,0,.455,3.638,2.671,2.671,0,0,1,0,2.1,4.32,4.32,0,0,1-1.023,1.762.8.8,0,0,1-.8,0,1.251,1.251,0,0,1-.8-.455A16.03,16.03,0,0,1,46.961,58.9,12.959,12.959,0,0,0,45.2,55.039a3.581,3.581,0,0,0-1.591-1.364c-.568-.284-1.023-.284-1.307,0a1.762,1.762,0,0,0-.625,1.307,4.49,4.49,0,0,0,0,2.1,9.153,9.153,0,0,1,2.046,1.591,14.779,14.779,0,0,1,2.16,2.444,4.32,4.32,0,0,1,.966,2.956,2.955,2.955,0,0,1-1.137,2.217H44.176A6.309,6.309,0,0,1,42.3,64.475L41.277,63.11a11.369,11.369,0,0,1-1.648-2.728,1.932,1.932,0,0,1,0-1.591,14.1,14.1,0,0,1,0-5.684,5.684,5.684,0,0,1,2.046-3.467,2.785,2.785,0,0,1,1.307-.625,4.945,4.945,0,0,1,1.762,0,2.956,2.956,0,0,1,1.137.455,3.752,3.752,0,0,1,1.023,1.08l.341.455a12.172,12.172,0,0,1,.739,1.08Z" transform="translate(184.301 198.061)" fill="#231815"/>
      <path id="Path_420" data-name="Path 420" d="M43.876,63.487a34.1,34.1,0,0,0,.568-6.366,30.865,30.865,0,0,1,0-3.3l.853-.966a4.774,4.774,0,0,1,1.08-.739,1.364,1.364,0,0,1,1.478,0,7.048,7.048,0,0,1,1.705,2.444c1.194,2.33,2.16,4.32,2.9,5.684a12.958,12.958,0,0,1,1.08,3.069,3.979,3.979,0,0,1-.682,2.16,6.081,6.081,0,0,1-1.364,1.705,1.137,1.137,0,0,1-.966,0,1.421,1.421,0,0,1-.8-.739s0,0,0-.341a1.422,1.422,0,0,1,0-.455c-.4-1.25-.853-2.5-1.307-3.694s-1.08-2.387-1.648-3.524l-.739-.625a46.673,46.673,0,0,1-.512,6.423,22.338,22.338,0,0,1-.966,4.433,3.524,3.524,0,0,1-.853,1.08,4.036,4.036,0,0,1-1.194.966,1.364,1.364,0,0,1-.909,0,.8.8,0,0,1-.625-.4,13.241,13.241,0,0,1-.4-3.353v-2.9c-.4-4.718-.739-8.3-1.08-10.686a34.442,34.442,0,0,0-1.137-5.684,5.684,5.684,0,0,0-1.137,3.581c0,1.421,0,2.217,0,2.33h-.455a1.137,1.137,0,0,1-.455-.455,6.2,6.2,0,0,1,0-2.273,10.288,10.288,0,0,1,.341-3.24,9.777,9.777,0,0,1,1.08-2.671,4.49,4.49,0,0,1,1.194-1.478,2.39,2.39,0,0,1,1.535.455A5.058,5.058,0,0,1,42,45.81a24.326,24.326,0,0,1,1.194,5.684C42.91,54.507,43.365,58.542,43.876,63.487Z" transform="translate(169.653 203.652)" fill="#231815"/>
      <path id="Path_421" data-name="Path 421" d="M40.761,50.9a3.24,3.24,0,0,0-1.535-.739,3.353,3.353,0,0,0-1.648,0A4.206,4.206,0,0,0,35.7,51.521c-.568.682-.853,1.023-.966,1.023a.682.682,0,0,1-.568,0,.91.91,0,0,1-.4-.4,2.9,2.9,0,0,1,1.25-2.5,7.048,7.048,0,0,1,2.9-2.217,10.572,10.572,0,0,1,2.274-.512,17.5,17.5,0,0,0,2.5-.625,2.1,2.1,0,0,1,2.16.455A4.831,4.831,0,0,1,46.559,49.3a9.151,9.151,0,0,1,.341,3.751,14.039,14.039,0,0,1-.966,4.433A14.665,14.665,0,0,1,43.546,61.7a6.935,6.935,0,0,1-2.558,2.33,2.046,2.046,0,0,1-1.819,0,4.036,4.036,0,0,1-1.364-1.876,4.831,4.831,0,0,1,0-2.046h0v-1.08a3.921,3.921,0,0,1,0-1.023,9.322,9.322,0,0,1,.909-3.751A12.049,12.049,0,0,1,40.761,50.9Zm1.08,1.421a11.026,11.026,0,0,0-1.933,4.149,6.025,6.025,0,0,0,0,3.638,1.307,1.307,0,0,0,.4.625.455.455,0,0,0,.455,0c.853,0,1.364-1.307,1.648-3.012a11.652,11.652,0,0,0-.4-5.286Z" transform="translate(158.217 216.243)" fill="#231815"/>
      <path id="Path_422" data-name="Path 422" d="M35.1,57.077a15.176,15.176,0,0,0,1.478-4.206,17.845,17.845,0,0,1,.682-2.785,5.229,5.229,0,0,1,1.25-1.705,3.467,3.467,0,0,1,1.762-1.364,2.274,2.274,0,0,1,1.762.512c.682.455,1.08.909,1.137,1.307a1.129,1.129,0,0,1-.455,1.137,4.035,4.035,0,0,0-.739,1.08,5.684,5.684,0,0,0-.341,2.16,14.608,14.608,0,0,0,.512,3.24,1.307,1.307,0,0,0,0,.682.739.739,0,0,0,.625,0H43.8a.8.8,0,0,1,.455.512,1.648,1.648,0,0,1-.568,1.421A3.126,3.126,0,0,1,41.98,60.2a2.956,2.956,0,0,0-1.194.739l-.8.568a.966.966,0,0,1-.909-.341,4.831,4.831,0,0,1-.625-1.591,9.152,9.152,0,0,1,0-2.387c0-.909,0-2.274,0-3.979l-.284,1.137a27.622,27.622,0,0,1-1.421,4.206l.455.853a1.353,1.353,0,0,0,.284.966,6.252,6.252,0,0,1,0,1.989,2.5,2.5,0,0,1-.512,1.421,18.918,18.918,0,0,1-1.364,1.478,3.637,3.637,0,0,1-.739.625,1.374,1.374,0,0,1-1.307-.739,3.865,3.865,0,0,1-.909-1.421,6.424,6.424,0,0,1,.284-1.194,4.377,4.377,0,0,0,0-1.876,1.535,1.535,0,0,0-.682-.853,1.932,1.932,0,0,1-.8-1.194,3.694,3.694,0,0,1,0-.625,1.478,1.478,0,0,1,0-.455,3.41,3.41,0,0,1,.966-.739,2.786,2.786,0,0,1,1.08-.625,1.194,1.194,0,0,1,.739,0,2.046,2.046,0,0,1,.853.909Z" transform="translate(147.336 220.123)" fill="#231815"/>
      <path id="Path_423" data-name="Path 423" d="M32.768,60.976a2.333,2.333,0,0,0,0-.455,1.421,1.421,0,0,0,0-.455,9.151,9.151,0,0,0-1.705-2.444,7.5,7.5,0,0,1-1.762-3.41,4.945,4.945,0,0,1,1.762-4.149,8.185,8.185,0,0,1,5-2.444,6.764,6.764,0,0,1,2.9,0c.739.284,1.194.682,1.25,1.307a3.637,3.637,0,0,1-.853,2.274c-.682.909-1.25,1.364-1.705,1.421s-1.137-.341-1.762-1.137-1.137-1.25-1.535-1.194a.512.512,0,0,0-.455.284.909.909,0,0,0,0,.568,6.593,6.593,0,0,0,1.932,3.979,5.968,5.968,0,0,1,1.705,2.615,2.672,2.672,0,0,1,0,1.307,5.683,5.683,0,0,1-.909,1.478A14.381,14.381,0,0,1,33.9,63.364a6.536,6.536,0,0,1-2.274,1.307,2.33,2.33,0,0,1-1.194,0,1.137,1.137,0,0,1-.682-.8,6.252,6.252,0,0,1,0-2.387,1.194,1.194,0,0,1,1.08-.909,2.1,2.1,0,0,1,1.023,0,1.592,1.592,0,0,1,.909.4Z" transform="translate(137.223 222.305)" fill="#231815"/>
      <path id="Path_426" data-name="Path 426" d="M15.722,42.89a18.927,18.927,0,0,0-.284,14.153,18.188,18.188,0,0,0,11.368,7.9,28.817,28.817,0,0,0-1.819-14.38,18.813,18.813,0,0,0-9.265-7.673Z" transform="translate(66.568 200.889)" fill="#d9b766"/>
      <path id="Path_427" data-name="Path 427" d="M19.039,44.65A19.211,19.211,0,0,0,18.7,58.8a18.245,18.245,0,0,0,11.368,7.9,28.874,28.874,0,0,0-1.648-14.38,18.7,18.7,0,0,0-9.378-7.673Z" transform="translate(82.064 209.132)" fill="#d9b766"/>
      <path id="Path_428" data-name="Path 428" d="M27.258,47.987A27.566,27.566,0,0,0,13.39,52.818a24.383,24.383,0,0,0,15.4,7.389h0a18.188,18.188,0,0,0,13.016-6.593A27.737,27.737,0,0,0,27.6,47.93Z" transform="translate(62.761 224.495)" fill="#d9b766"/>
      <path id="Path_429" data-name="Path 429" d="M24.258,45.565a17.736,17.736,0,0,0-3.069,0A29.84,29.84,0,0,0,9.31,48.35a24.156,24.156,0,0,0,14.153,9.606,15.288,15.288,0,0,0,2.274,0A19.325,19.325,0,0,0,37.5,53.238a27.681,27.681,0,0,0-13.243-7.673Z" transform="translate(43.651 213.105)" fill="#d9b766"/>
      <path id="Path_430" data-name="Path 430" d="M13.872,40.4a18.586,18.586,0,0,0-2.217,13.982,17.961,17.961,0,0,0,10.288,9.435,29.385,29.385,0,0,0,0-14.494A19.325,19.325,0,0,0,13.872,40.4Z" transform="translate(52.275 189.226)" fill="#d9b766"/>
      <path id="Path_431" data-name="Path 431" d="M16.89,61.877a29.329,29.329,0,0,0,2.956-14.153A19.552,19.552,0,0,0,13.423,37.38a19.211,19.211,0,0,0-4.888,13.3,18.075,18.075,0,0,0,8.355,11.2Z" transform="translate(39.993 175.081)" fill="#d9b766"/>
      <path id="Path_432" data-name="Path 432" d="M17.952,45.5A19.609,19.609,0,0,0,14.314,34.13,18.7,18.7,0,0,0,6.3,45.5a18.3,18.3,0,0,0,5.343,12.959A29.385,29.385,0,0,0,17.952,45.5Z" transform="translate(29.553 159.858)" fill="#d9b766"/>
      <path id="Path_433" data-name="Path 433" d="M20.959,43.113a18.812,18.812,0,0,0-5.684-.853A33.25,33.25,0,0,0,5.84,43.795,24.611,24.611,0,0,0,18.629,55.162a16.143,16.143,0,0,0,4.092.568,20.519,20.519,0,0,0,10.458-3.3A27.339,27.339,0,0,0,20.959,43.113Z" transform="translate(27.398 197.938)" fill="#d9b766"/>
      <path id="Path_434" data-name="Path 434" d="M26.654,54.545A26.828,26.828,0,0,0,17.9,41.984,27.055,27.055,0,0,0,3.18,38.119a24.213,24.213,0,0,0,8.81,14.664,15.744,15.744,0,0,0,8.867,2.5,23.247,23.247,0,0,0,5.8-.739Z" transform="translate(14.939 178.491)" fill="#d9b766"/>
      <path id="Path_435" data-name="Path 435" d="M22.13,53.242a27.225,27.225,0,0,0-6.821-13.7A27.225,27.225,0,0,0,1.27,33.86a24.838,24.838,0,0,0,6.593,15.8A17.051,17.051,0,0,0,19.231,53.64Z" transform="translate(5.993 158.594)" fill="#d9b766"/>
      <path id="Path_436" data-name="Path 436" d="M16.556,42.533A20.121,20.121,0,0,0,14.623,30.54,18.643,18.643,0,0,0,5.018,40.885,18.359,18.359,0,0,0,8.371,54.469a29.1,29.1,0,0,0,8.185-11.936Z" transform="translate(22.594 143.044)" fill="#d9b766"/>
      <path id="Path_437" data-name="Path 437" d="M16.248,38.977a19.723,19.723,0,0,0,0-12.107A18.813,18.813,0,0,0,4.88,35.282a18.188,18.188,0,0,0,.682,13.925A28.931,28.931,0,0,0,16.248,38.977Z" transform="translate(17.9 125.854)" fill="#d9b766"/>
      <path id="Path_438" data-name="Path 438" d="M4.052,42.609a28.7,28.7,0,0,0,11.993-8.242A19.439,19.439,0,0,0,18.773,23,18.984,18.984,0,0,0,5.928,28.684,17.9,17.9,0,0,0,4.052,42.609Z" transform="translate(16 107.728)" fill="#d9b766"/>
      <path id="Path_439" data-name="Path 439" d="M18.476,51.411a27.112,27.112,0,0,0-4.945-14.437A27.225,27.225,0,0,0,.459,29.13,24.611,24.611,0,0,0,4.835,45.443a18.188,18.188,0,0,0,13.641,5.968Z" transform="translate(1.746 136.439)" fill="#d9b766"/>
      <path id="Path_440" data-name="Path 440" d="M15.156,49a27.4,27.4,0,0,0-2.671-15.062A26.544,26.544,0,0,0,.776,24.22,24.27,24.27,0,0,0,2.595,41.271,18.7,18.7,0,0,0,15.156,49Z" transform="translate(0.008 113.442)" fill="#d9b766"/>
      <path id="Path_441" data-name="Path 441" d="M12.16,46.175a26.884,26.884,0,0,0,0-15.289A27.68,27.68,0,0,0,2.9,19.12,24.44,24.44,0,0,0,1.532,36.171a18.188,18.188,0,0,0,10.629,10Z" transform="translate(2.833 89.554)" fill="#d9b766"/>
      <path id="Path_442" data-name="Path 442" d="M24.255,20.068a24.213,24.213,0,0,0-5.684-.739,14.494,14.494,0,0,0-8.185,2.16A17.563,17.563,0,0,0,3.85,33.822a29.1,29.1,0,0,0,14.1-3.524,17.961,17.961,0,0,0,6.309-10.231Z" transform="translate(18.077 90.482)" fill="#d9b766"/>
      <path id="Path_443" data-name="Path 443" d="M18.925,15.583a12.732,12.732,0,0,0-5.684,1.194A17.961,17.961,0,0,0,5,28.144a39.334,39.334,0,0,0,5.059.341,22.11,22.11,0,0,0,9.378-1.705,18.075,18.075,0,0,0,8.3-9.321,22.281,22.281,0,0,0-8.81-1.876Z" transform="translate(23.464 72.971)" fill="#d9b766"/>
      <path id="Path_444" data-name="Path 444" d="M20.457,12.11a11.879,11.879,0,0,0-4.49.853A17.051,17.051,0,0,0,6.93,23.535a37.4,37.4,0,0,0,7.5.8,18.416,18.416,0,0,0,6.991-1.137,17.847,17.847,0,0,0,8.526-8.526A22.735,22.735,0,0,0,20.457,12.11Z" transform="translate(32.504 56.721)" fill="#d9b766"/>
      <path id="Path_445" data-name="Path 445" d="M10.148,43.04a28.874,28.874,0,0,0,3.865-14.778A28.419,28.419,0,0,0,7.477,14.45a24.725,24.725,0,0,0-5.684,16.2A19.1,19.1,0,0,0,10.148,43.04Z" transform="translate(8.426 67.681)" fill="#d9b766"/>
      <path id="Path_446" data-name="Path 446" d="M16.051,24.878A27.566,27.566,0,0,0,12.3,10.1,24.725,24.725,0,0,0,4,24.878,18.984,18.984,0,0,0,9.685,38.69,28.419,28.419,0,0,0,16.051,24.878Z" transform="translate(18.779 47.306)" fill="#d9b766"/>
      <path id="Path_447" data-name="Path 447" d="M19.338,21.075A25.748,25.748,0,0,0,17.917,6.07,24.44,24.44,0,0,0,7.231,19.313,18.472,18.472,0,0,0,10.755,33.75a26.6,26.6,0,0,0,8.583-12.675Z" transform="translate(32.6 28.431)" fill="#d9b766"/>
      <path id="Path_448" data-name="Path 448" d="M33.844,14.061A19.893,19.893,0,0,0,22.135,9.23H20.543A17.449,17.449,0,0,0,9.46,17.585,29.385,29.385,0,0,0,21.169,20.6a11.367,11.367,0,0,0,2.444,0,17.051,17.051,0,0,0,10.231-6.536Z" transform="translate(44.354 43.232)" fill="#d9b766"/>
      <path id="Path_449" data-name="Path 449" d="M24.694,6.73A18.245,18.245,0,0,0,12.36,13.323a27.737,27.737,0,0,0,13.584,5,18.3,18.3,0,0,0,11.368-4.774A19.154,19.154,0,0,0,24.694,6.73Z" transform="translate(57.937 31.522)" fill="#d9b766"/>
      <path id="Path_450" data-name="Path 450" d="M28.619,4.87H27.6A18.472,18.472,0,0,0,15.83,10.554a28.419,28.419,0,0,0,13.073,6.2h.8a20.291,20.291,0,0,0,10.742-3.865A18.529,18.529,0,0,0,28.619,4.87Z" transform="translate(74.189 22.81)" fill="#d9b766"/>
      <path id="Path_451" data-name="Path 451" d="M23.094,18.212A26.259,26.259,0,0,0,24.288,3.15,23.531,23.531,0,0,0,11.442,14.518a18.018,18.018,0,0,0,.966,14.721A26.714,26.714,0,0,0,23.094,18.212Z" transform="translate(48.339 14.754)" fill="#d9b766"/>
      <path id="Path_452" data-name="Path 452" d="M27.523,15.707A27.737,27.737,0,0,0,31.956,1.1,24.44,24.44,0,0,0,16.951,9.4a18.075,18.075,0,0,0-2.274,14.607,27.851,27.851,0,0,0,12.845-8.3Z" transform="translate(65.793 5.152)" fill="#d9b766"/>
      <path id="Path_453" data-name="Path 453" d="M111.346,11.5c2.387,0,4.831-.455,7.218-.568H130.9c4.149,0,8.185,0,12.334-.341h0a61.328,61.328,0,0,0-12.391-1.705,76.844,76.844,0,0,0-12.5.625q-3.126.341-6.309.853a3.518,3.518,0,0,1,.4-1.08,89.694,89.694,0,0,0-9.549-1.819c2.1-.682,4.263-1.307,6.423-1.876,3.183-.739,6.423-1.307,9.549-2.1S125.214,1.9,128.4.931h0a42.06,42.06,0,0,0-10,.512,61.444,61.444,0,0,0-9.606,2.615,96.167,96.167,0,0,0-9.265,3.41,20.291,20.291,0,0,0-6.877.909A8.014,8.014,0,0,0,87.929,16.9a136.98,136.98,0,0,0-9.947,249.065h0l3.183,1.421,1.705.853h0l8.81,4.206a112.084,112.084,0,0,0,15.8,6.536,80.993,80.993,0,0,0,31.147,1.25c1.705,0-1.876-2.217-3.751-2.956a47.515,47.515,0,0,0-12.675.625,63.83,63.83,0,0,1-14.892-1.364,131.75,131.75,0,0,1-21.144-9.265l-2.5-1.08A134.706,134.706,0,0,1,90.089,18.835a24.668,24.668,0,0,0,7.787,1.307,17.052,17.052,0,0,0,6.082-1.307,15.175,15.175,0,0,0,3.126-1.876H115.5c2.728,0,6.082.512,9.094.625s6.082,0,9.265,0h0a38.2,38.2,0,0,0-9.037-2.217,51.154,51.154,0,0,0-9.321,0,35.274,35.274,0,0,0-6.934.455,16.6,16.6,0,0,0,2.785-4.32Z" transform="translate(13.004 3.901)" fill="#d9b766"/>
      <path id="Path_454" data-name="Path 454" d="M19.638,25.583H66.245a3.808,3.808,0,0,0,3.808-3.808V17.91H16v3.865A3.808,3.808,0,0,0,19.638,25.583Z" transform="translate(74.986 83.887)" fill="#b4b4b5"/>
      <path id="Path_455" data-name="Path 455" d="M32.468,25.583H79.075a3.808,3.808,0,0,0,3.808-3.808V17.91H28.66v3.865A3.808,3.808,0,0,0,32.468,25.583Z" transform="translate(134.283 83.887)" fill="#b4b4b5"/>
      <path id="Path_456" data-name="Path 456" d="M66.245,34.343H19.638A3.808,3.808,0,0,0,16,38.094v3.865H70.224V38.094a3.808,3.808,0,0,0-3.979-3.751Z" transform="translate(74.986 160.839)" fill="#b4b4b5"/>
      <path id="Path_457" data-name="Path 457" d="M79.075,34.34H32.468a3.808,3.808,0,0,0-3.808,3.808v3.865H82.884V38.091a3.808,3.808,0,0,0-3.808-3.751Z" transform="translate(134.283 160.842)" fill="#b4b4b5"/>
      <path id="Path_458" data-name="Path 458" d="M192.34,71.111,175.971,50.422c.341,0,.568-.455.568-.739s-.682-1.023-1.648-1.25V46.443h.853V44.852a5.968,5.968,0,0,0-3.979,0v1.591H148.12V27.516h5.115a3.808,3.808,0,0,0,3.808-3.808V19.9H120.213v3.808a3.808,3.808,0,0,0,3.808,3.808h5.115V46.557H75.993V27.516h5.115a3.808,3.808,0,0,0,3.808-3.808V19.9H48.085v3.808a3.808,3.808,0,0,0,3.808,3.808h5.115V46.557H33.592V44.966a5.968,5.968,0,0,0-3.979,0v1.591h.853v1.989a1.546,1.546,0,0,0-1.648,1.25c0,.568,0,.512.568.739l-16.6,20.746c-1.194.341-1.819.682-1.819,1.023h0a9.208,9.208,0,0,0,5.059,3.467A49.222,49.222,0,0,0,32.4,78.216a37.513,37.513,0,0,0,11.993-1.705,18.188,18.188,0,0,0,7.787-3.865s0-.341,0-.4a3.819,3.819,0,0,0-1.876-1.08L36.661,54.117H56.9V90.834H51.78a3.808,3.808,0,0,0-3.808,3.808v3.865H85.03V94.642a3.808,3.808,0,0,0-3.808-3.808H76.106V67.189H129.25v23.7h-5.115a3.808,3.808,0,0,0-3.808,3.808v3.865h36.831V94.7a3.808,3.808,0,0,0-3.808-3.808h-5.115V54.173h20.178L154.827,71.225c-1.137.341-1.819.682-1.819,1.023h0a9.208,9.208,0,0,0,5.059,3.467,49.336,49.336,0,0,0,16.426,2.444,37.4,37.4,0,0,0,11.936-1.705,17.79,17.79,0,0,0,7.787-3.865v-.4A6.324,6.324,0,0,0,192.34,71.111ZM30.465,69.633a128.852,128.852,0,0,0-14.266.853L30.465,52.752Zm16.483.853a127.656,127.656,0,0,0-14.209-.853V54.173h1.137Zm82.188-10.97H75.993V54.173h53.144ZM172.39,69.633a126.751,126.751,0,0,0-14.21.853l13.073-16.313h1.137Zm2.274,0V52.582l14.21,17.733a127.655,127.655,0,0,0-14.21-.682Z" transform="translate(51.426 93.208)" fill="#b4b4b5"/>
    </g>
  </g>
</svg>
